<svg xmlns="http://www.w3.org/2000/svg" width="166.509" height="166.51" viewBox="0 0 44.056 44.056"><path fill="#054" d="M0 0h44.056v44.056H0z"/><path d="M22.028 1.879c-8.613 0-16.022 10.652-16.022 20.945 0 7.272 3.735 12.755 8.94 15.48 1.237.73 2.554 1.36 3.843 2.645.3.299.544.595.746.886v2.22h4.986v-2.22c.202-.292.446-.588.745-.886 1.29-1.285 2.607-1.915 3.845-2.645 5.204-2.725 8.939-8.208 8.939-15.48 0-10.293-7.174-20.945-16.022-20.945z" fill="#f2f2f2"/><g fill="#c83737" font-weight="400" font-family="sans-serif"><text style="line-height:1.25" x="55.731" y="131.337" font-size="37.501" stroke-width=".938" transform="matrix(.94896 0 0 1 -46.067 -95.658)"><tspan x="55.731" y="131.337" style="-inkscape-font-specification:serif" font-family="serif">C</tspan></text><text style="line-height:1.25" x="69.344" y="121.224" font-size="10.583" stroke-width=".265" transform="matrix(.94896 0 0 1 -46.067 -95.658)"><tspan x="69.344" y="121.224" style="-inkscape-font-specification:'sans-serif Italic'" font-style="italic">etc</tspan></text></g><text style="line-height:1.25" x="65.422" y="51.309" font-weight="400" font-size="10.583" font-family="sans-serif" stroke-width=".265" transform="translate(-83.822 -67.233)"/><text style="line-height:1.25" x="66.735" y="46.525" font-weight="400" font-size="10.583" font-family="sans-serif" stroke-width=".265" transform="translate(-83.822 -67.233)"/><text style="line-height:1.25" x="62.038" y="110.301" font-weight="400" font-size="10.583" font-family="sans-serif" stroke-width=".265" transform="translate(-83.822 -67.233)"/></svg>