<?xml version="1.0" encoding="UTF-8"?>
<!DOCTYPE svg PUBLIC "-//W3C//DTD SVG 1.1//EN" "http://www.w3.org/Graphics/SVG/1.1/DTD/svg11.dtd">
<!-- Creator: CorelDRAW X8 -->
<svg xmlns="http://www.w3.org/2000/svg" xml:space="preserve" width="40px" height="40px" version="1.1" style="shape-rendering:geometricPrecision; text-rendering:geometricPrecision; image-rendering:optimizeQuality; fill-rule:evenodd; clip-rule:evenodd"
viewBox="0 0 40 40"
 xmlns:xlink="http://www.w3.org/1999/xlink"
 xmlns:svgjs="http://svgjs.com/svgjs">
 <defs>
  <style type="text/css">
   <![CDATA[
    .str0 {stroke:#464646;stroke-width:7.65488}
    .fil3 {fill:#2196F3}
    .fil4 {fill:#90CAF9}
    .fil2 {fill:#BBDEFB}
    .fil6 {fill:#FF6A28}
    .fil0 {fill:white}
    .fil5 {fill:#A2A2A2;fill-opacity:0.250980}
    .fil1 {fill:#934803;fill-opacity:0.800000}
   ]]>
  </style>
 </defs>
 <g id="Camada_x0020_1">
  <metadata id="CorelCorpID_0Corel-Layer"/>
  <g id="_2459056041952">
   <polygon class="fil0 str0" points="-3809,4009 -3882,3244 -3116,3244 -3190,4009 -3809,4009 " vectorEffect="non-scaling-stroke" strokeWidth="5.616" strokeLinejoin="miter" strokeLinecap="butt" strokeMiterlimit="4"/>
   <g>
    <polygon class="fil1" points="-3811,3650 -3187,3650 -3225,3972 -3772,3972 "/>
   </g>
   <g id="iceLeft">
    <polygon class="fil2" points="-3547,3846 -3693,3869 -3777,3723 -3631,3700 "/>
    <polygon class="fil3" points="-3547,3846 -3454,3731 -3539,3585 -3631,3700 "/>
    <polygon class="fil4" points="-3777,3723 -3685,3608 -3539,3585 -3631,3700 "/>
   </g>
   <g id="iceRight">
    <polygon class="fil2" points="-3436,3930 -3555,3843 -3512,3680 -3393,3768 "/>
    <polygon class="fil3" points="-3436,3930 -3289,3914 -3246,3751 -3393,3768 "/>
    <polygon class="fil4" points="-3512,3680 -3365,3664 -3246,3751 -3393,3768 "/>
   </g>
   <g>
    <path class="fil5" d="M-3218 3334c-13,-1 -25,7 -26,17l-2 32c-1,10 9,19 23,20l2 0c13,0 24,-8 25,-19l2 -31c2,-10 -9,-19 -24,-19l0 0zm-8 109c-14,0 -26,7 -26,18l-35 458 -437 0c-15,0 -26,8 -26,20 0,11 11,19 26,19l461 0c14,0 25,-8 25,-18l37 -477c0,-10 -11,-19 -25,-20l0 0z" fillRule="evenodd"/>
   </g>
  </g>
  <g id="_2459056042336">
  </g>
  <g id="_2459056042112">
  </g>
  <g id="_2459056041984">
  </g>
  <g id="_2459056042240">
  </g>
  <g id="_2459056039712">
  </g>
  <g id="_2459056039008">
  </g>
  <g id="_2459056040832">
  </g>
  <g id="_2459056040800">
  </g>
  <g id="_2459056039360">
  </g>
  <g id="_2459056040864">
  </g>
  <g id="_2459056039424">
  </g>
  <g id="_2459056070144">
  </g>
  <g id="_2459056070528">
  </g>
  <g id="_2459056071104">
  </g>
  <g id="_2459056069792">
  </g>
  <g id="_2459056069760">
  </g>
  <g id="_2459056068000">
  </g>
  <g id="_2459056068768">
  </g>
  <g id="_2459056069184">
  </g>
  <g id="_2459056068640">
  </g>
  <g id="_2459056063040">
  </g>
  <g id="_2459056057952">
  </g>
  <g id="_2459056058688">
  </g>
  <g id="_2459056056000">
  </g>
  <g id="_2459056049056">
  </g>
  <g id="_2459056047040">
  </g>
  <g id="_2459056045664">
  </g>
  <g id="_2459056047008">
  </g>
  <g id="_2459056046368">
  </g>
  <g id="_2459056046336">
  </g>
  <g id="_2459056046304">
  </g>
  <g id="_2459056044736">
  </g>
  <g id="_2459056043552">
  </g>
  <g id="_2459056043968">
  </g>
  <g id="_2459056043904">
  </g>
  <g id="_2459056043616">
  </g>
  <g id="_2459056044640">
  </g>
  <g id="_2459005328096">
  </g>
  <g id="_2459005329088">
  </g>
  <g id="_2459005327936">
  </g>
  <g id="_2459005327488">
  </g>
  <g id="_2459005326080">
  </g>
  <g id="_2459005326816">
  </g>
  <g id="_2459005326432">
  </g>
  <g id="_2459005324640">
  </g>
  <g id="_2459005324544">
   <path class="fil6" d="M34 2c-1,-1 -3,-2 -5,-2 -4,0 -7,2 -9,5 -2,-3 -5,-5 -9,-5 -2,0 -4,1 -5,2 -4,2 -6,6 -6,11 0,2 0,3 1,4 1,10 14,23 19,23 5,0 18,-13 19,-23 1,-1 1,-2 1,-4 0,-5 -2,-9 -6,-11zm2 14c0,0 0,1 0,1 0,0 -1,0 -1,0 0,-1 0,-1 0,-2 0,0 0,-1 0,-2 0,-3 -1,-5 -3,-6 -1,-1 -2,-1 -3,-1 -1,0 -1,-1 -1,-1 0,-1 0,-1 1,-1 1,0 2,0 4,1 2,2 4,5 4,8 0,1 0,2 -1,3z" data-original="#000000"/>
  </g>
  <g id="_2459005324928">
  </g>
  <g id="_2459005323936">
  </g>
  <g id="_2459005324864">
  </g>
  <g id="_2459005321792">
  </g>
  <g id="_2459005375168">
  </g>
  <g id="_2459005375104">
  </g>
  <g id="_2459005375968">
  </g>
  <g id="_2459005376768">
  </g>
  <g id="_2459005373920">
  </g>
  <g id="_2459005373792">
  </g>
  <g id="_2459005374464">
  </g>
  <g id="_2459005374912">
  </g>
  <g id="_2459005374560">
  </g>
  <g id="_2459005372928">
  </g>
  <g id="_2459005374208">
  </g>
  <g id="_2459005371392">
  </g>
  <g id="_2459005372800">
  </g>
  <g id="_2459005372160">
  </g>
  <g id="_2459005372832">
  </g>
  <g id="_2459005370080">
  </g>
  <g id="_2459005365440">
  </g>
  <g id="_2459005361120">
  </g>
  <g id="_2459005342752">
  </g>
  <g id="_2459005340640">
  </g>
  <g id="_2459005340928">
  </g>
  <g id="_2459005340352">
  </g>
  <g id="_2459005340384">
  </g>
  <g id="_2459005333088">
  </g>
  <g id="_2459005332992">
  </g>
  <g id="_2459005331968">
  </g>
 </g>
</svg>
