<?xml version="1.0" encoding="UTF-8"?>
<!DOCTYPE svg PUBLIC "-//W3C//DTD SVG 1.1//EN" "http://www.w3.org/Graphics/SVG/1.1/DTD/svg11.dtd">
<!-- Creator: CorelDRAW X8 -->
<svg xmlns="http://www.w3.org/2000/svg" xml:space="preserve" width="2480px" height="3508px" version="1.1" style="shape-rendering:geometricPrecision; text-rendering:geometricPrecision; image-rendering:optimizeQuality; fill-rule:evenodd; clip-rule:evenodd"
viewBox="0 0 2480 3507"
 xmlns:xlink="http://www.w3.org/1999/xlink">
 <defs>
  <style type="text/css">
   <![CDATA[
    .fil5 {fill:#FF6A28}
    .fil4 {fill:#FF6A28}
    .fil1 {fill:#FFB594}
    .fil0 {fill:white}
    .fil6 {fill:white}
    .fil3 {fill:white}
    .fil2 {fill:#FF6A28;fill-rule:nonzero}
   ]]>
  </style>
 </defs>
 <g id="Camada_x0020_1">
  <metadata id="CorelCorpID_0Corel-Layer"/>
  <g id="_1923763265376">
   <g>
    <path class="fil0" d="M-557 627c10,-5 21,-7 33,-7 14,-1 28,-1 42,-1 23,0 46,1 68,2 6,1 12,1 18,1 1,0 1,0 2,0 20,1 39,4 54,17 1,1 2,1 2,2 15,13 23,32 23,52 0,18 -5,37 -11,55 -4,13 -10,25 -19,35 1,5 1,9 1,14 0,22 -6,44 -15,64 -3,7 -6,14 -11,20 2,5 2,11 2,17 0,12 -2,23 -5,35 -3,11 -7,22 -12,33 -14,27 -42,41 -72,41 -1,0 -1,0 -1,0l-38 0 -22 0c-16,0 -35,-1 -50,-7 0,0 -1,0 -1,0 -21,-8 -36,-25 -48,-44 -1,0 -1,-1 -2,-2 -5,11 -12,21 -20,30 -15,15 -35,22 -56,22 -17,0 -34,-3 -50,-9 -13,-5 -25,-11 -34,-19 -33,22 -72,31 -113,31 -20,0 -40,-2 -58,-12 -18,-10 -33,-30 -45,-46 -12,-15 -20,-32 -20,-51 0,-19 10,-52 15,-70 3,-11 6,-23 9,-34 -9,-12 -14,-27 -14,-44 0,-16 6,-36 11,-52 5,-16 11,-31 23,-43 0,0 0,0 0,-1 9,-9 19,-15 31,-20 0,0 1,-1 1,-1 15,-6 30,-10 46,-13 15,-3 31,-5 47,-5 28,0 55,5 80,18 13,-11 30,-17 50,-17 19,0 39,3 58,10 0,0 1,1 2,1 2,1 4,2 5,3 13,-9 28,-13 43,-13 17,0 34,2 51,8z"/>
    <path class="fil1" d="M-555 661c1,-1 1,-1 1,-1 9,-8 20,-10 32,-11 13,0 26,0 40,0 22,0 44,1 67,2 6,0 12,1 19,1 0,0 0,0 1,0 12,0 26,2 36,10 1,1 1,1 1,1 9,8 13,19 13,30 0,15 -4,31 -9,45 -3,10 -8,20 -15,27 -4,4 -8,7 -12,9 5,6 7,14 7,23 0,18 -5,36 -12,52 -4,8 -8,16 -14,23 -2,1 -3,2 -4,3 4,6 7,14 7,23 0,9 -2,18 -5,27 -2,9 -5,19 -9,27 -9,17 -27,26 -46,26 0,0 -1,0 -1,0l-38 -1 -22 0c-12,0 -28,0 -40,-4 0,-1 0,-1 0,-1 -15,-6 -26,-19 -34,-32 -7,-10 -12,-22 -12,-35 0,-6 2,-13 3,-19l5 -21c-3,-3 -5,-7 -6,-11l-41 83c0,0 -1,0 -1,0 -4,9 -9,19 -16,26 -9,9 -22,13 -35,13 -14,0 -27,-3 -40,-7 -10,-4 -21,-9 -28,-17 -5,-6 -8,-13 -9,-21 0,1 -1,1 -1,2 -31,34 -74,46 -119,46 -14,0 -31,-1 -43,-8 -13,-7 -28,-27 -37,-38 -7,-10 -13,-21 -13,-33 0,-8 2,-17 4,-24 3,-13 6,-25 10,-38 4,-17 9,-34 14,-52 -11,-6 -18,-19 -18,-34 0,-13 6,-31 10,-43 3,-11 8,-23 16,-32 0,0 0,0 0,0 6,-6 13,-11 20,-14 0,0 1,0 1,0 13,-5 27,-9 41,-12 13,-3 27,-5 41,-5 29,0 58,8 82,25 2,1 3,2 5,3 7,-16 23,-26 43,-26 16,0 32,2 47,8 1,0 1,0 1,0 8,4 15,9 19,15 2,-2 3,-4 5,-5 9,-11 22,-18 36,-18 18,0 35,4 51,11 1,1 2,1 2,2zm-191 202c3,-5 5,-11 8,-17 -2,-10 -4,-21 -6,-31 0,-1 0,-1 0,-2 -4,4 -8,9 -12,13 6,11 10,24 10,37z"/>
   </g>
   <path class="fil2" d="M-796 818c13,17 20,32 20,47 0,17 -7,33 -20,48 -21,24 -53,36 -96,36 -15,0 -24,-1 -29,-4 -4,-2 -13,-12 -27,-30 -5,-7 -8,-12 -8,-15 0,-4 5,-22 13,-54 9,-31 18,-62 28,-93 -3,1 -8,3 -14,5 -5,2 -9,3 -11,3 -3,0 -5,-3 -5,-9 0,-5 3,-17 8,-34 4,-11 7,-17 10,-21 2,-2 5,-4 10,-6 10,-4 22,-8 36,-11 14,-2 25,-4 35,-4 25,0 47,7 66,19 20,14 29,32 29,56 0,26 -15,49 -45,67zm-95 -72c12,1 21,3 30,6 6,3 10,6 10,10 0,2 -1,5 -3,11l-5 19c10,-1 18,-4 24,-8 10,-7 15,-15 15,-24 0,-14 -11,-21 -33,-21 -12,0 -25,2 -38,7zm27 65l-22 78c3,1 6,1 9,1 9,0 18,-3 25,-9 6,-6 9,-12 9,-19 0,-4 -1,-7 -4,-9 -1,-2 -4,-3 -7,-5 -3,-1 -4,-4 -5,-8 -2,-9 -3,-18 -5,-29zm157 40c-2,-11 -4,-25 -7,-41 -5,-28 -10,-59 -16,-93 -2,-12 -3,-20 -3,-24 0,-10 6,-16 17,-16 12,0 25,3 37,7 5,2 8,6 9,12 4,19 6,41 6,65 0,2 0,6 0,14 2,-4 8,-18 17,-39 12,-28 20,-45 25,-51 4,-5 9,-7 14,-7 14,0 27,3 39,8 5,3 8,7 8,12 0,5 -3,13 -9,24l-100 202c-5,9 -9,15 -12,18 -3,3 -7,5 -13,5 -9,0 -19,-2 -30,-6 -8,-3 -13,-6 -15,-9 -2,-1 -2,-3 -2,-5 0,-4 2,-10 7,-20 8,-15 18,-34 28,-56zm212 -106c4,2 7,4 8,5 7,3 12,5 14,7 3,2 4,3 4,5 0,5 -2,13 -6,24 4,0 10,0 19,1 26,0 41,1 46,2 4,1 7,4 7,8 0,11 -4,24 -11,40 -2,7 -5,11 -7,13 -2,2 -5,3 -9,3 -3,0 -6,0 -11,0 -23,-2 -41,-2 -54,-2l-8 34c6,0 15,1 28,1 24,0 37,0 41,1 5,2 7,5 7,11 0,5 -1,12 -3,20 -3,8 -5,15 -8,20 -3,7 -10,10 -19,10l-39 -1 -22 0c-15,0 -25,-1 -29,-2 -6,-3 -13,-10 -20,-21 -5,-7 -7,-13 -7,-19 0,-2 1,-6 2,-12l10 -42c-4,-1 -7,-1 -8,-2 -3,-2 -4,-4 -4,-8 0,-10 2,-22 7,-36 3,-10 7,-16 11,-18 2,-1 6,-1 13,-1l12 -41c-5,0 -10,0 -14,-1 -4,-1 -7,-3 -7,-8 0,-2 1,-8 4,-17 2,-10 5,-18 8,-26 2,-5 4,-9 6,-10 2,-2 6,-4 13,-4 8,0 21,0 39,0 17,0 38,0 65,2 12,0 19,1 21,1 10,0 16,1 18,3 2,2 3,5 3,8 0,8 -2,20 -7,35 -3,9 -6,14 -8,17 -3,2 -7,4 -12,4 -3,0 -9,0 -16,-1 -20,-1 -46,-2 -77,-3z"/>
   <g>
    <path class="fil0" d="M78 627c11,-5 22,-7 34,-7 14,-1 28,-1 41,-1 23,0 46,1 69,2 6,1 12,1 18,1 1,0 1,0 2,0 19,1 38,4 54,17 1,1 1,1 2,2 15,13 23,32 23,52 0,18 -5,37 -11,55 -5,13 -10,25 -20,35 1,5 2,9 2,14 0,22 -7,44 -15,64 -3,7 -7,14 -11,20 1,5 2,11 2,17 0,12 -2,23 -5,35 -3,11 -7,22 -12,33 -15,27 -42,41 -73,41 0,0 0,0 -1,0l-38 0 -21 0c-17,0 -35,-1 -50,-7 -1,0 -1,0 -2,0 -21,-8 -36,-25 -48,-44 0,0 -1,-1 -1,-2 -6,11 -12,21 -20,30 -15,15 -35,22 -56,22 -17,0 -35,-3 -51,-9 -12,-5 -24,-11 -34,-19 -32,22 -72,31 -112,31 -20,0 -41,-2 -58,-12 -18,-10 -34,-30 -46,-46 -11,-15 -20,-32 -20,-51 0,-19 11,-52 15,-70 3,-11 7,-23 10,-34 -9,-12 -14,-27 -14,-44 0,-16 6,-36 11,-52 5,-16 11,-31 22,-43 0,0 1,0 1,-1 8,-9 19,-15 30,-20 1,0 1,-1 2,-1 15,-6 30,-10 45,-13 16,-3 32,-5 47,-5 29,0 56,5 80,18 14,-11 31,-17 50,-17 20,0 40,3 58,10 1,0 2,1 2,1 2,1 4,2 6,3 12,-9 27,-13 43,-13 17,0 34,2 50,8z"/>
    <path class="fil1" d="M81 661c0,-1 1,-1 1,-1 9,-8 20,-10 31,-11 13,0 27,0 40,0 23,0 45,1 67,2 7,0 13,1 19,1 1,0 1,0 1,0 13,0 27,2 37,10 0,1 1,1 1,1 8,8 13,19 13,30 0,15 -5,31 -10,45 -3,10 -7,20 -14,27 -4,4 -8,7 -13,9 5,6 8,14 8,23 0,18 -6,36 -13,52 -3,8 -7,16 -14,23 -1,1 -2,2 -3,3 4,6 6,14 6,23 0,9 -2,18 -4,27 -2,9 -5,19 -10,27 -9,17 -26,26 -46,26 0,0 0,0 0,0l-38 -1 -22 0c-12,0 -29,0 -40,-4 0,-1 -1,-1 -1,-1 -14,-6 -25,-19 -34,-32 -6,-10 -11,-22 -11,-35 0,-6 1,-13 3,-19l4 -21c-2,-3 -4,-7 -6,-11l-41 83c0,0 0,0 0,0 -4,9 -10,19 -17,26 -9,9 -21,13 -34,13 -14,0 -28,-3 -41,-7 -10,-4 -20,-9 -27,-17 -5,-6 -9,-13 -9,-21 -1,1 -1,1 -2,2 -30,34 -74,46 -118,46 -14,0 -31,-1 -44,-8 -13,-7 -27,-27 -36,-38 -7,-10 -14,-21 -14,-33 0,-8 3,-17 4,-24 3,-13 7,-25 10,-38 5,-17 10,-34 15,-52 -12,-6 -18,-19 -18,-34 0,-13 5,-31 9,-43 4,-11 8,-23 16,-32 0,0 0,0 0,0 6,-6 13,-11 21,-14 0,0 0,0 0,0 14,-5 28,-9 41,-12 14,-3 28,-5 41,-5 30,0 58,8 83,25 2,1 3,2 5,3 6,-16 22,-26 42,-26 17,0 33,2 48,8 0,0 1,0 1,0 8,4 14,9 19,15 1,-2 3,-4 4,-5 10,-11 22,-18 37,-18 17,0 35,4 51,11 0,1 1,1 2,2zm-192 202c3,-5 6,-11 8,-17 -1,-10 -3,-21 -5,-31 0,-1 0,-1 0,-2 -4,4 -8,9 -12,13 5,11 9,24 9,37z"/>
   </g>
   <path class="fil2" d="M-161 818c14,17 21,32 21,47 0,17 -7,33 -20,48 -21,24 -53,36 -96,36 -15,0 -25,-1 -29,-4 -5,-2 -14,-12 -27,-30 -6,-7 -8,-12 -8,-15 0,-4 4,-22 13,-54 8,-31 17,-62 28,-93 -3,1 -8,3 -15,5 -5,2 -8,3 -10,3 -4,0 -6,-3 -6,-9 0,-5 3,-17 9,-34 3,-11 6,-17 9,-21 3,-2 6,-4 10,-6 11,-4 23,-8 37,-11 13,-2 25,-4 34,-4 25,0 47,7 66,19 20,14 30,32 30,56 0,26 -15,49 -46,67zm-94 -72c11,1 21,3 30,6 6,3 9,6 9,10 0,2 -1,5 -2,11l-5 19c9,-1 17,-4 23,-8 11,-7 16,-15 16,-24 0,-14 -11,-21 -33,-21 -12,0 -25,2 -38,7zm26 65l-21 78c3,1 6,1 8,1 10,0 18,-3 25,-9 6,-6 9,-12 9,-19 0,-4 -1,-7 -3,-9 -2,-2 -4,-3 -8,-5 -2,-1 -4,-4 -5,-8 -1,-9 -3,-18 -5,-29zm157 40c-1,-11 -4,-25 -7,-41 -5,-28 -10,-59 -15,-93 -2,-12 -3,-20 -3,-24 0,-10 5,-16 16,-16 13,0 26,3 38,7 4,2 7,6 8,12 4,19 6,41 6,65 0,2 0,6 0,14 3,-4 8,-18 17,-39 12,-28 21,-45 26,-51 4,-5 8,-7 14,-7 13,0 26,3 38,8 6,3 9,7 9,12 0,5 -3,13 -9,24l-101 202c-4,9 -8,15 -11,18 -3,3 -7,5 -13,5 -9,0 -19,-2 -31,-6 -7,-3 -13,-6 -15,-9 -1,-1 -2,-3 -2,-5 0,-4 3,-10 8,-20 8,-15 17,-34 27,-56zm213 -106c4,2 7,4 8,5 6,3 11,5 14,7 2,2 4,3 4,5 0,5 -2,13 -6,24 4,0 10,0 18,1 26,0 42,1 46,2 5,1 7,4 7,8 0,11 -3,24 -10,40 -3,7 -5,11 -8,13 -2,2 -5,3 -9,3 -2,0 -6,0 -10,0 -23,-2 -41,-2 -54,-2l-9 34c6,0 16,1 29,1 23,0 37,0 41,1 4,2 6,5 6,11 0,5 -1,12 -3,20 -2,8 -4,15 -7,20 -4,7 -10,10 -20,10l-38 -1 -22 0c-16,0 -26,-1 -30,-2 -6,-3 -12,-10 -20,-21 -4,-7 -6,-13 -6,-19 0,-2 0,-6 2,-12l9 -42c-3,-1 -6,-1 -8,-2 -3,-2 -4,-4 -4,-8 0,-10 2,-22 7,-36 3,-10 7,-16 12,-18 2,-1 6,-1 13,-1l11 -41c-5,0 -9,0 -13,-1 -5,-1 -7,-3 -7,-8 0,-2 1,-8 3,-17 3,-10 6,-18 9,-26 2,-5 3,-9 5,-10 3,-2 7,-4 13,-4 9,0 22,0 39,0 17,0 39,0 66,2 12,0 19,1 20,1 10,0 17,1 19,3 2,2 3,5 3,8 0,8 -3,20 -8,35 -3,9 -5,14 -8,17 -2,2 -6,4 -12,4 -3,0 -8,0 -16,-1 -20,-1 -45,-2 -76,-3z"/>
   <path class="fil3" d="M525 679l0 -101c1,-10 19,-10 22,-2l0 102c-1,11 -20,9 -22,1zm-101 -86c-2,-12 18,-13 21,-4l19 93c2,12 -18,12 -21,3l-19 -92zm232 1c-2,8 -18,87 -19,91 -3,9 -24,10 -21,-5l19 -91c3,-8 23,-9 21,5zm-290 -8c2,4 15,63 17,73 3,15 13,61 17,74l264 0c5,-17 9,-38 14,-56l21 -85c2,-9 1,-7 10,-7 22,-3 51,-11 62,-27 15,-19 -4,-35 -17,-42 -12,-7 -27,-10 -41,-12 -20,-3 -6,2 -21,-15 -8,-9 -17,-16 -29,-23 -61,-36 -170,-38 -237,-12 -11,4 -19,7 -28,13 -1,1 -1,0 -2,1 -2,1 -3,2 -5,3 -3,2 -3,2 -5,4 -9,6 -16,12 -22,22 -4,7 -1,5 -11,6 -21,2 -49,10 -62,27 -15,19 4,35 18,42 13,7 26,10 41,12 4,1 12,1 16,2z"/>
   <path class="fil3" d="M535 807c-97,0 -176,75 -176,166 0,91 79,165 176,165 98,0 177,-74 177,-165 0,-91 -79,-166 -177,-166z"/>
   <g>
    <path class="fil0" d="M644 957l-33 -7c-1,0 -2,0 -2,0 -2,-1 -3,-1 -5,-1 0,-1 0,-1 -1,-1l-36 -11c0,0 -1,0 -1,-1 -1,0 -2,0 -3,0 -2,-1 -4,-2 -6,-3 -30,-11 -50,-22 -78,-37 0,0 0,-1 -1,-1 -1,0 -1,-1 -2,-2l-7 -4c-20,7 -29,25 -35,45 -7,23 -9,54 -8,78 1,14 3,29 2,43 -2,21 -17,38 -38,43 -21,4 -41,-5 -52,-24 -20,-36 -36,-71 -44,-113 -10,-54 -1,-111 27,-158 0,-8 0,-16 0,-24 0,-9 1,-20 0,-29 -3,-17 -7,-36 -11,-52 -4,-18 -8,-36 -12,-54 -18,-6 -34,-13 -51,-25 -1,-1 -2,-1 -3,-2l-4 -3c0,-1 0,-1 -1,-1 -2,-2 -4,-4 -6,-6 -21,-21 -33,-50 -26,-80 10,-49 59,-76 105,-87 20,-21 50,-37 77,-48 90,-33 204,-32 293,4 18,8 34,17 50,28 1,1 3,3 5,4 2,2 4,3 6,5 2,3 5,5 7,8 10,2 19,4 29,8 28,11 52,27 67,53 13,22 15,49 6,72 -1,2 -2,4 -3,6 -1,1 -1,2 -1,2 0,0 0,0 0,1l-1 1c-1,1 -1,2 -2,3 -6,11 -14,19 -24,28 -18,14 -35,22 -54,27 -2,8 -4,15 -5,22l-14 62c-2,8 -4,17 -5,24 -1,11 0,25 0,36 0,3 0,6 0,9 2,4 4,9 6,13 7,16 11,29 15,45 4,18 7,35 8,53 2,39 -4,82 -17,118 -4,11 -9,24 -15,34 -10,19 -31,28 -52,23 -21,-4 -36,-21 -38,-42l-6 -82zm-206 -272l189 0c1,-7 3,-13 5,-20l20 -84c3,-15 9,-26 22,-35 1,-1 2,-2 3,-2 -3,-2 -5,-4 -8,-7 -6,-4 -9,-9 -12,-15 0,-1 -1,-1 -1,-1 -5,-6 -11,-10 -17,-14 -49,-28 -144,-28 -195,-9 -8,3 -15,6 -22,10 -1,1 -2,1 -3,2 0,0 0,0 0,0 0,0 -1,0 -1,1 -1,0 -2,1 -3,2 0,0 0,0 0,0 -4,3 -8,5 -10,9 -6,10 -12,16 -18,21 10,4 17,12 22,22 6,12 10,35 13,47 2,12 5,25 8,37 2,11 5,24 8,36z"/>
    <path class="fil1" d="M666 936c-5,0 -9,-1 -14,-1 0,-1 -1,-1 -1,-1l-35 -7c0,0 -1,0 -1,0 -2,-1 -3,-1 -4,-1 0,-1 0,-1 -1,-1l-36 -11c0,0 0,0 -1,0 0,0 -1,-1 -2,-1 -2,-1 -4,-1 -5,-2 -14,-5 -28,-11 -42,-18 -11,-5 -22,-12 -33,-18 0,0 0,0 -1,0 0,-1 0,-1 -1,-1l-16 -11c0,0 -1,0 -1,0 -34,7 -51,32 -61,64 -8,26 -10,59 -9,86 1,13 3,27 2,40 -1,11 -8,19 -19,21 -10,3 -21,-2 -26,-11 -19,-35 -34,-67 -42,-107 -9,-49 0,-100 26,-143 1,-1 1,-2 2,-3 0,-10 0,-20 0,-31 0,-10 1,-21 0,-32 -1,-6 -2,-13 -4,-19 -2,-12 -5,-24 -8,-36 -4,-18 -8,-37 -12,-55 -1,-4 -2,-8 -3,-13 -21,-4 -38,-12 -57,-25 -1,0 -1,0 -2,-1l-4 -3c0,0 0,0 0,0 -2,-2 -3,-3 -5,-5 -16,-15 -25,-36 -20,-58 9,-41 56,-62 93,-70 1,0 1,0 1,0 1,-1 2,-1 2,-2 18,-20 47,-36 72,-45 84,-32 191,-31 275,3 16,7 30,15 45,26 1,1 2,2 4,3 2,1 3,3 5,4 4,4 8,8 12,12 0,0 1,0 2,0 11,2 19,4 29,8 23,9 43,22 55,43 10,16 11,35 4,51 0,2 -1,4 -2,5 0,1 0,1 -1,1 0,1 0,1 0,1l0 1c-1,1 -1,1 -1,2 -6,9 -11,15 -19,21 -14,11 -29,18 -45,23 -5,2 -10,3 -15,4 -2,12 -5,24 -8,36l-13 62c-2,9 -5,18 -6,27 -1,11 0,26 0,38 0,4 0,10 0,14 3,6 6,12 8,18 6,14 10,26 14,41 4,16 6,32 7,48 2,36 -3,75 -16,109 -3,10 -8,21 -13,30 -5,10 -16,14 -26,12 -10,-2 -18,-11 -19,-21l-8 -101zm-247 -227l227 0c3,-13 6,-26 9,-38l20 -85c2,-8 5,-15 12,-20 8,-6 12,-4 20,-5 12,-1 38,-7 45,-17 -2,-3 -7,-6 -9,-7 -10,-5 -22,-8 -33,-10 -9,-1 -17,0 -25,-7 -5,-4 -7,-10 -11,-15 -7,-8 -14,-13 -23,-19 -55,-32 -157,-32 -216,-10 -9,3 -17,7 -25,12 -1,0 -2,0 -2,1 0,0 0,0 0,0 -2,1 -2,1 -4,2 -1,1 -2,2 -4,3 -6,5 -11,9 -16,16 -3,5 -4,8 -10,12 -7,5 -12,4 -19,5 -12,1 -37,6 -45,17 2,3 7,6 9,7 11,5 22,8 34,9 6,1 11,1 18,2 7,2 13,6 16,13 3,5 4,13 5,18 2,8 4,16 6,25 3,12 6,24 8,36 3,12 6,24 8,37 2,6 3,12 5,18zm5 74l0 5 214 1 0 -5 -214 -1z"/>
   </g>
   <path class="fil4" d="M400 760l262 0 0 53 -262 -1 0 -52zm-34 -174c-4,-1 -12,-1 -16,-2 -15,-2 -28,-5 -41,-12 -14,-7 -33,-23 -18,-42 13,-17 41,-25 62,-27 10,-1 7,1 11,-6 6,-10 13,-16 22,-22 2,-2 2,-2 5,-4 2,-1 3,-2 5,-3 1,-1 1,0 2,-1 9,-6 17,-9 28,-13 67,-26 176,-24 237,12 12,7 21,14 29,23 15,17 1,12 21,15 14,2 29,5 41,12 13,7 32,23 17,42 -11,16 -40,24 -62,27 -9,0 -8,-2 -10,7l-21 85c-5,18 -9,39 -14,56l-264 0c-4,-13 -14,-59 -17,-74 -2,-10 -15,-69 -17,-73zm332 449c4,-7 9,-19 12,-27 11,-30 16,-67 14,-100 -1,-15 -3,-29 -6,-43 -4,-16 -7,-23 -13,-38 -11,-28 -10,-12 -10,-41 0,-43 -1,-36 6,-70l14 -62c3,-13 6,-27 9,-41 1,-5 1,-9 4,-10 4,-2 38,-5 62,-25 6,-5 10,-9 14,-16l1 -1c0,0 0,0 0,-1 1,-1 2,-2 2,-4 4,-10 3,-21 -2,-30 -9,-16 -26,-25 -43,-32 -20,-8 -24,-6 -35,-9 -3,-1 -2,-1 -4,-3 -3,-5 -8,-9 -12,-13 -2,-2 -2,-2 -4,-3 -1,-1 -2,-2 -3,-3 -13,-9 -24,-16 -40,-23 -79,-32 -180,-32 -258,-3 -24,9 -48,24 -62,39 -1,1 -2,2 -3,4 -6,6 -1,3 -13,6 -27,6 -68,21 -75,51 -3,16 7,29 14,36 1,2 2,2 3,3l4 3c21,14 38,20 64,24 2,9 4,20 6,29 4,15 25,108 25,113 1,11 0,23 0,34 0,12 0,24 0,35 0,5 -3,8 -6,12 -21,36 -31,80 -22,126 7,39 23,71 39,99 1,-7 -1,-27 -2,-37 -1,-30 1,-66 10,-94 12,-40 35,-72 79,-80 2,-1 4,-1 5,-1 1,0 2,-1 4,-1 4,0 3,0 6,2l20 14c1,0 1,0 1,0 30,18 35,21 71,35 2,1 3,1 4,1 1,1 2,1 3,1l36 12c2,0 3,0 4,1l35 7c10,1 21,3 32,4l10 120z"/>
   <g>
    <path class="fil5" d="M686 932c2,20 4,40 5,61 1,10 2,20 3,29 1,7 2,14 3,20 0,6 1,11 1,16 0,3 -1,5 -2,7 -35,53 -84,79 -147,85l-4 0c0,0 0,0 0,0 -28,2 -57,-2 -83,-13 -8,-3 -15,-6 -22,-10 -1,-1 -2,-1 -2,-1 -6,-3 -12,-7 -17,-11 -5,-3 -12,-8 -16,-13 -4,-3 -10,-8 -13,-13 -3,-5 -3,-13 -4,-19 -3,-20 -6,-38 -7,-58 -2,-61 12,-142 81,-160 6,-1 12,-3 18,-2 6,1 10,5 15,8 39,28 106,52 153,59 9,1 21,2 30,4 4,2 8,6 8,11zm-92 30l-3 1c0,0 0,0 -1,0 0,0 -1,0 -2,0 -1,1 -1,1 -1,1 -2,1 -2,2 -4,3 -2,3 -2,6 -1,9 2,7 7,10 14,8 3,0 6,-3 7,-6 3,-7 -1,-15 -9,-16zm-128 0c-6,2 -10,7 -9,14 1,4 3,7 7,8 2,1 4,1 6,0 7,-1 10,-6 9,-13 -1,-6 -7,-10 -13,-9zm16 83c2,1 5,3 7,4 -1,-1 -3,-2 -4,-3 -1,0 -2,-1 -3,-1zm96 5c2,-1 4,-3 6,-4 1,0 1,0 2,-1 0,0 0,0 0,0 -2,1 -4,2 -5,3 -1,1 -2,1 -3,2z"/>
    <path class="fil1" d="M680 933c2,20 4,40 5,60 1,10 2,20 3,30 1,7 2,13 3,20 0,5 1,10 1,15 0,2 -1,3 -1,4 -35,51 -82,76 -142,82l-4 0c0,0 -1,0 -1,0 -26,2 -55,-2 -79,-12 -8,-3 -15,-7 -22,-11 -1,0 -2,0 -2,-1 -6,-3 -11,-6 -16,-10 -5,-3 -11,-8 -16,-12 -2,-2 -4,-5 -7,-7 -1,-1 -3,-3 -4,-5 -3,-4 -3,-13 -4,-17 -3,-19 -6,-38 -7,-57 -2,-57 10,-137 76,-154 16,-4 15,-3 28,5 40,28 108,53 156,60 4,0 9,1 13,1 5,1 11,2 16,3 2,1 4,3 4,6zm-86 23l-5 1c-4,1 -2,-1 -6,2 -2,1 -3,2 -5,4 -3,5 -3,10 -2,15 3,9 11,15 21,12 6,-1 10,-5 12,-10 4,-12 -3,-24 -15,-24zm-129 0c-10,3 -16,11 -14,21 5,22 39,16 34,-7 -2,-10 -11,-16 -20,-14zm9 90c2,5 20,13 25,14 30,12 61,7 88,-8 3,-2 6,-4 5,-8 -1,-3 -4,-5 -7,-5 -2,0 -4,2 -6,3 -3,2 -7,4 -11,6 -12,5 -25,7 -39,7 -12,-1 -23,-3 -33,-9 -3,-2 -11,-7 -14,-7 -1,-1 -2,0 -3,0 -2,1 -5,4 -5,7z"/>
   </g>
   <path class="fil6" d="M468 1048c-2,-8 5,-13 9,-15 13,-5 17,14 53,15 31,2 47,-14 53,-15 12,-2 24,15 7,24 -29,16 -62,22 -93,9 -9,-3 -27,-11 -29,-18zm-5 -98c15,-3 26,7 28,18 7,32 -39,41 -46,10 -3,-15 7,-25 18,-28zm130 0c28,0 32,40 5,46 -22,6 -37,-20 -25,-36 2,-3 4,-4 6,-6 6,-4 7,-3 9,-3l5 -1zm81 -17c-6,-2 -21,-3 -28,-4 -50,-8 -119,-33 -158,-60 -11,-8 -9,-8 -23,-5 -62,16 -74,91 -72,148 1,20 4,36 7,56 3,20 0,12 14,26 4,4 23,17 29,21 1,0 2,1 3,1 7,4 13,7 21,10 23,9 51,14 77,12l4 0c58,-6 104,-30 137,-80 0,-13 -5,-48 -6,-65 -1,-18 -3,-40 -5,-60z"/>
   <g>
    <path class="fil0" d="M1692 646c13,-9 27,-17 42,-23 14,-5 30,-9 46,-9 11,0 22,2 31,6 7,-2 14,-3 21,-3 31,0 55,19 69,47 14,29 19,62 19,94 0,46 -10,91 -28,133 -15,36 -38,67 -70,90 -26,18 -56,29 -88,29 -36,0 -68,-14 -93,-40 -4,-3 -7,-7 -10,-10 -27,30 -64,45 -106,45 -33,0 -65,-10 -90,-31 -2,-1 -4,-2 -5,-4 -4,4 -9,7 -13,11 -26,18 -56,29 -88,29 -37,0 -68,-14 -94,-40 0,0 0,0 0,0 -11,16 -28,28 -48,32 -8,1 -16,2 -24,2 -11,0 -22,-2 -33,-5 -8,-1 -16,-4 -23,-7 -14,9 -31,14 -49,14 -18,0 -36,-3 -54,-10 -3,-1 -6,-3 -10,-5 -14,9 -31,14 -48,14 -17,0 -33,-4 -49,-10 0,-1 -1,-1 -1,-1 -12,7 -25,10 -39,10 -22,0 -42,-5 -61,-14 -25,-13 -41,-36 -41,-64 0,-28 17,-77 25,-104 11,-35 22,-70 34,-104 6,-19 14,-41 23,-58 10,-18 24,-32 44,-38 1,0 1,0 2,0 9,-3 18,-4 27,-4 11,0 23,2 34,4 11,3 21,6 32,10 8,4 16,9 22,15 1,-1 2,-2 3,-3 15,-16 35,-24 57,-24 14,0 29,2 42,6 1,0 1,1 1,1 13,4 26,9 37,18 10,-12 23,-21 38,-25 8,-2 16,-2 24,-2 17,0 34,2 51,7 14,4 26,11 36,21 12,-9 26,-17 41,-23 15,-5 30,-9 46,-9 12,0 22,2 31,6 7,-2 14,-3 21,-3 31,0 56,19 69,47 12,23 17,49 19,74 3,-10 7,-22 9,-32 0,-2 0,-3 1,-5 5,-22 12,-45 28,-61 16,-16 36,-23 58,-23 20,0 40,4 59,13 9,4 17,9 23,16z"/>
    <path class="fil1" d="M1684 692c17,-18 37,-32 60,-41 12,-4 24,-7 36,-7 11,0 21,3 29,10 7,-4 14,-7 23,-7 19,0 34,13 42,30 12,25 16,53 16,81 0,42 -9,83 -26,121 -13,31 -32,58 -59,77 -21,15 -45,25 -71,25 -28,0 -52,-12 -72,-32 -15,-14 -24,-31 -30,-49 -3,10 -8,19 -13,26 -22,34 -55,49 -94,49 -26,0 -51,-7 -71,-24 -10,-7 -17,-16 -22,-26 -9,12 -20,22 -33,31 -21,15 -44,25 -70,25 -29,0 -53,-12 -73,-32 -14,-14 -24,-31 -30,-50 -1,7 -3,13 -5,20 -2,9 -4,19 -8,27 0,0 0,0 0,1 -6,13 -17,23 -32,25 -6,2 -12,2 -18,2 -9,0 -18,-1 -26,-4 -9,-2 -18,-5 -26,-9 -3,-2 -5,-4 -8,-6 -10,14 -26,21 -45,21 -14,0 -29,-2 -42,-8 -10,-3 -18,-10 -23,-17 -1,2 -3,4 -5,6 0,0 0,1 0,1 -11,12 -26,17 -42,17 -13,0 -25,-3 -37,-8 -6,-2 -11,-5 -16,-9 -2,3 -5,5 -8,8 -8,6 -18,8 -28,8 -17,0 -33,-3 -48,-11 -14,-7 -24,-20 -24,-37 0,-11 4,-25 6,-36 6,-20 12,-40 18,-59 10,-35 21,-69 33,-104 6,-16 13,-37 21,-53 6,-11 15,-20 27,-23 0,0 1,-1 1,-1 6,-1 12,-2 19,-2 9,0 18,1 27,3 9,2 18,5 27,9 17,7 26,22 28,39 1,3 1,6 1,10 2,-4 5,-8 7,-11 6,-11 14,-25 22,-34 10,-9 23,-14 36,-14 12,0 23,2 34,5 0,0 0,0 1,0 10,3 21,8 30,16 10,9 14,21 14,34 0,8 -1,18 -2,26 0,-1 0,-1 1,-2 3,-12 7,-24 11,-36 2,-6 4,-13 7,-19 6,-13 17,-21 30,-25 5,-1 10,-1 16,-1 14,0 28,2 42,6 19,5 34,18 37,38 16,-18 36,-32 60,-41 11,-4 23,-7 35,-7 12,0 22,3 29,10 7,-4 15,-7 23,-7 20,0 34,13 42,30 13,25 17,53 17,81 0,9 -1,19 -2,28 2,0 4,0 5,0 12,0 23,2 35,5 2,1 4,2 6,3 4,-12 7,-24 10,-36 4,-11 7,-22 10,-33 1,-5 2,-10 3,-14 0,-1 1,-2 1,-3 3,-15 9,-36 20,-47 10,-10 23,-14 37,-14 16,0 32,3 46,10 16,7 26,19 28,35z"/>
   </g>
   <path class="fil2" d="M1040 801l-56 106c-10,18 -16,28 -18,31 -5,5 -11,7 -20,7 -8,0 -17,-2 -26,-6 -7,-2 -11,-5 -12,-9 -1,-3 -1,-9 -1,-17 0,-22 0,-42 1,-60 2,-30 3,-49 4,-56l-32 113c-1,6 -2,10 -3,12 -2,10 -6,17 -10,20 -3,2 -6,3 -10,3 -12,0 -24,-3 -35,-9 -5,-2 -7,-6 -7,-10 0,-10 7,-39 22,-87 27,-86 44,-136 52,-150 3,-6 6,-9 10,-10 3,-1 6,-1 11,-1 6,0 13,1 21,3 9,1 16,3 21,6 6,2 10,8 11,16 1,13 2,39 2,77 0,21 -1,40 -4,58 21,-47 43,-88 64,-125 9,-15 15,-24 19,-28 4,-4 8,-6 14,-6 8,0 16,2 26,5 8,2 15,5 19,9 3,3 4,7 4,12 0,3 0,10 -2,23l-19 173c-2,16 -3,25 -3,28 -3,11 -11,17 -25,17 -12,0 -22,-2 -31,-5 -7,-3 -10,-7 -10,-13 0,-4 2,-19 7,-46 4,-26 8,-45 11,-56 2,-12 4,-21 5,-25zm160 -124c11,0 23,2 34,5 10,3 15,9 15,16 0,3 -2,12 -7,28 -3,10 -9,31 -18,63 -9,32 -15,54 -18,66 -12,49 -19,75 -20,80 -2,4 -6,7 -11,8 -3,1 -7,1 -12,1 -5,0 -12,-1 -19,-3 -8,-1 -14,-4 -18,-6 -7,-4 -10,-9 -10,-15 0,-9 8,-43 24,-102 7,-23 15,-50 24,-80 9,-30 15,-47 17,-51 2,-5 6,-8 10,-9 2,0 5,-1 9,-1zm183 31l6 -5c14,-12 23,-19 27,-22 4,-3 7,-4 10,-4 6,0 12,4 16,13 9,18 13,40 13,68 0,36 -8,72 -24,110 -11,27 -28,49 -49,64 -17,12 -35,19 -53,19 -20,0 -37,-8 -52,-23 -18,-18 -28,-44 -28,-76 0,-39 11,-76 31,-111 17,-30 41,-51 70,-62 8,-3 16,-5 24,-5 9,0 13,3 13,10 0,5 -1,13 -4,24zm-3 17c-1,3 -2,4 -2,6 -2,5 -3,8 -4,10 -1,1 -4,3 -8,6 -14,9 -25,23 -34,42 -9,21 -14,41 -14,60 0,9 2,16 6,22 4,5 8,8 12,8 10,0 19,-10 29,-28 13,-26 19,-56 19,-91 0,-12 -1,-24 -4,-35zm108 91c9,0 18,1 26,4 8,2 11,6 11,11 0,3 -1,9 -4,18 -3,12 -5,20 -5,24 0,3 1,5 2,7 2,2 4,3 7,3 6,0 11,-3 13,-10 2,-5 6,-19 12,-41 5,-19 11,-41 18,-66 9,-31 13,-48 14,-51 4,-18 8,-29 12,-33 4,-3 9,-5 16,-5 12,0 24,2 34,7 7,3 11,8 11,14 0,4 -3,16 -9,37 -8,29 -18,68 -31,118 -6,27 -13,46 -21,57 -15,24 -38,35 -69,35 -21,0 -39,-5 -53,-17 -13,-11 -20,-25 -20,-43 0,-16 4,-34 11,-53 2,-7 5,-12 9,-14 3,-1 9,-2 16,-2zm301 -108l6 -5c13,-12 22,-19 27,-22 3,-3 7,-4 10,-4 6,0 11,4 15,13 9,18 13,40 13,68 0,36 -7,72 -23,110 -12,27 -28,49 -50,64 -17,12 -35,19 -53,19 -19,0 -36,-8 -51,-23 -19,-18 -28,-44 -28,-76 0,-39 10,-76 30,-111 18,-30 41,-51 70,-62 9,-3 17,-5 25,-5 8,0 12,3 12,10 0,5 -1,13 -3,24zm-4 17c-1,3 -1,4 -2,6 -1,5 -2,8 -4,10 0,1 -3,3 -7,6 -14,9 -26,23 -34,42 -10,21 -14,41 -14,60 0,9 2,16 6,22 3,5 8,8 12,8 10,0 19,-10 28,-28 13,-26 20,-56 20,-91 0,-12 -2,-24 -5,-35z"/>
   <polygon class="fil3" points="400,812 662,813 662,760 400,760 "/>
   <path class="fil4" d="M468 1048c2,7 20,15 29,18 31,13 64,7 93,-9 17,-9 5,-26 -7,-24 -6,1 -22,17 -53,15 -36,-1 -40,-20 -53,-15 -4,2 -11,7 -9,15z"/>
   <path class="fil4" d="M525 679c2,8 21,10 22,-1l0 -102c-3,-8 -21,-8 -22,2l0 101z"/>
   <path class="fil4" d="M656 594c2,-14 -18,-13 -21,-5l-19 91c-3,15 18,14 21,5 1,-4 17,-83 19,-91z"/>
   <path class="fil4" d="M443 685c3,9 23,9 21,-3l-19 -93c-3,-9 -23,-8 -21,4l19 92z"/>
   <path class="fil4" d="M463 950c-11,3 -21,13 -18,28 7,31 53,22 46,-10 -2,-11 -13,-21 -28,-18z"/>
   <path class="fil4" d="M588 951c-2,0 -3,-1 -9,3 -2,2 -4,3 -6,6 -12,16 3,42 25,36 27,-6 23,-46 -5,-46l-5 1z"/>
  </g>
 </g>
</svg>
