<?xml version="1.0" encoding="UTF-8"?>
<!DOCTYPE svg PUBLIC "-//W3C//DTD SVG 1.1//EN" "http://www.w3.org/Graphics/SVG/1.1/DTD/svg11.dtd">
<!-- Creator: CorelDRAW X8 -->
<svg xmlns="http://www.w3.org/2000/svg" xml:space="preserve" width="2480px" height="3508px" version="1.1" style="shape-rendering:geometricPrecision; text-rendering:geometricPrecision; image-rendering:optimizeQuality; fill-rule:evenodd; clip-rule:evenodd"
viewBox="0 0 2480 3507"
 xmlns:xlink="http://www.w3.org/1999/xlink">
 <defs>
  <style type="text/css">
   <![CDATA[
    .fil5 {fill:#ff6a28}
    .fil4 {fill:#ff6a28}
    .fil1 {fill:#FFB594}
    .fil0 {fill:white}
    .fil6 {fill:white}
    .fil3 {fill:white}
    .fil2 {fill:#ff6a28;fill-rule:nonzero}
   ]]>
  </style>
 </defs>
 <g id="Camada_x0020_1">
  <metadata id="CorelCorpID_0Corel-Layer"/>
  <g id="_1923763257664">
   <g>
    <g>
     <path class="fil0" d="M264 1649c8,-4 16,-5 24,-6 10,0 19,0 29,0 16,0 32,1 48,1 4,1 8,1 13,1 0,0 0,0 1,0 14,1 27,3 38,12 0,1 1,1 1,1 10,10 16,23 16,37 0,12 -4,26 -8,38 -3,9 -7,18 -13,25 0,3 1,6 1,9 0,16 -5,31 -11,45 -2,5 -4,10 -7,14 1,4 1,8 1,12 0,8 -1,16 -3,24 -3,8 -5,16 -9,23 -10,19 -29,30 -50,30 -1,0 -1,0 -1,-1l-27 0 -15 0c-11,0 -24,0 -35,-4 0,0 -1,-1 -1,-1 -15,-5 -25,-17 -33,-30 -1,-1 -1,-1 -1,-2 -4,8 -9,15 -15,21 -10,11 -24,16 -39,16 -12,0 -24,-3 -35,-7 -9,-3 -17,-7 -24,-13 -22,15 -50,22 -78,22 -14,0 -29,-2 -41,-9 -12,-6 -23,-21 -32,-32 -8,-11 -14,-22 -14,-36 0,-13 7,-36 11,-48 2,-8 4,-16 7,-25 -7,-8 -10,-18 -10,-30 0,-12 4,-25 7,-36 4,-11 8,-22 16,-30 0,-1 0,-1 0,-1 6,-6 14,-11 22,-14 0,0 0,-1 1,-1 10,-4 21,-7 32,-9 10,-2 21,-4 32,-4 20,0 39,4 57,13 9,-8 21,-12 34,-12 14,0 28,2 41,7 0,0 1,1 1,1 2,0 3,1 4,2 9,-6 19,-9 30,-9 12,0 24,2 35,6z"/>
     <path class="fil1" d="M266 1672c1,0 1,0 1,-1 6,-5 14,-6 22,-7 9,0 19,0 28,0 16,0 31,0 47,1 4,1 9,1 13,1 0,0 1,0 1,0 9,0 18,1 25,7 1,0 1,1 1,1 6,5 9,13 9,21 0,10 -3,21 -6,31 -3,7 -6,14 -11,19 -2,3 -5,5 -8,6 3,5 5,10 5,16 0,13 -4,26 -9,37 -2,5 -5,11 -10,16 -1,0 -1,1 -2,2 3,4 4,10 4,16 0,6 -1,13 -3,19 -1,6 -3,13 -6,19 -7,12 -19,18 -32,18 -1,0 -1,0 -1,0l-27 -1 -15 0c-8,0 -20,0 -28,-3 0,0 0,0 0,0 -10,-4 -18,-13 -24,-22 -5,-8 -8,-16 -8,-25 0,-4 1,-9 2,-13l3 -15c-2,-2 -3,-5 -4,-8l-29 58c0,0 0,0 0,0 -3,7 -7,13 -12,18 -6,7 -15,10 -24,10 -9,0 -19,-2 -28,-6 -7,-2 -14,-5 -19,-11 -4,-4 -6,-9 -7,-15 0,1 0,1 -1,1 -21,25 -51,33 -82,33 -10,0 -22,-1 -31,-6 -9,-5 -19,-19 -25,-27 -5,-6 -10,-14 -10,-23 0,-5 2,-11 3,-16 2,-9 5,-18 7,-27 3,-12 7,-24 10,-36 -8,-5 -12,-14 -12,-24 0,-9 4,-22 6,-30 3,-8 6,-16 11,-22 0,0 0,-1 1,-1 4,-4 8,-7 14,-9 0,0 0,0 0,0 10,-4 19,-7 29,-9 9,-1 19,-3 28,-3 21,0 41,5 58,17 1,1 2,1 3,2 5,-11 16,-18 30,-18 12,0 23,2 34,6 0,0 0,0 0,0 6,2 10,6 14,11 1,-2 2,-3 3,-4 6,-8 15,-13 25,-13 13,0 24,3 36,8 0,0 1,1 1,1zm-134 142c2,-4 4,-8 6,-12 -1,-7 -2,-15 -4,-22 0,-1 0,-1 0,-1 -3,3 -5,6 -8,8 4,9 6,17 6,27z"/>
    </g>
    <path class="fil2" d="M97 1782c10,12 15,22 15,33 0,12 -5,23 -14,34 -15,16 -37,25 -67,25 -11,0 -17,-1 -21,-3 -3,-2 -9,-9 -19,-21 -3,-5 -5,-9 -5,-11 0,-3 3,-15 9,-38 6,-21 12,-42 19,-64 -2,1 -5,2 -9,3 -4,2 -6,2 -8,2 -2,0 -4,-2 -4,-6 0,-4 2,-12 6,-24 2,-7 5,-12 7,-14 1,-2 4,-4 7,-5 7,-3 16,-5 25,-7 10,-2 18,-3 24,-3 18,0 33,4 47,13 14,10 20,23 20,39 0,19 -10,34 -32,47zm-65 -51c7,1 14,3 20,5 5,2 7,4 7,7 0,1 -1,4 -2,7l-3 14c6,-1 12,-3 16,-6 7,-5 11,-10 11,-16 0,-10 -8,-15 -23,-15 -9,0 -17,1 -26,4zm18 46l-15 55c2,0 4,0 6,0 7,0 12,-2 17,-6 4,-4 7,-8 7,-13 0,-3 -1,-5 -3,-7 -1,-1 -3,-2 -5,-3 -2,-1 -3,-3 -4,-6 -1,-6 -2,-12 -3,-20zm110 28c-1,-7 -3,-17 -5,-29 -4,-19 -7,-41 -11,-64 -2,-9 -2,-15 -2,-17 0,-8 4,-11 11,-11 9,0 18,1 26,4 4,2 6,4 7,9 2,13 4,28 4,45 0,2 0,5 0,10 1,-3 5,-12 12,-28 8,-19 14,-31 18,-35 2,-3 5,-5 9,-5 10,0 19,2 27,6 4,2 6,5 6,8 0,3 -2,9 -6,17l-70 141c-4,6 -6,11 -9,13 -1,2 -4,3 -9,3 -6,0 -13,-1 -21,-4 -5,-2 -9,-4 -11,-6 0,-1 -1,-2 -1,-4 0,-2 2,-7 6,-14 5,-10 12,-24 19,-39zm148 -74c3,2 5,3 6,3 5,2 8,4 10,5 1,2 2,3 2,4 0,4 -1,9 -4,17 3,0 7,0 13,0 18,1 29,1 32,2 4,1 5,3 5,5 0,8 -2,17 -7,29 -2,4 -4,7 -5,9 -2,1 -4,2 -7,2 -2,0 -4,0 -7,-1 -16,-1 -29,-1 -38,-1l-6 24c5,0 11,0 20,0 17,0 26,1 29,2 3,0 4,3 4,7 0,4 0,8 -2,14 -1,5 -3,10 -5,14 -2,5 -7,7 -13,7l-27 -1 -16 0c-11,0 -18,0 -21,-1 -4,-2 -8,-7 -13,-15 -4,-5 -5,-9 -5,-13 0,-2 0,-4 1,-9l7 -29c-3,0 -5,-1 -6,-1 -2,-1 -2,-3 -2,-6 0,-7 1,-15 4,-25 3,-7 5,-11 9,-13 1,0 4,0 9,0l8 -29c-4,0 -7,0 -10,-1 -3,0 -5,-2 -5,-5 0,-2 1,-6 3,-12 2,-7 4,-13 6,-19 1,-3 2,-6 4,-7 1,-1 4,-2 9,-2 6,0 15,0 27,0 12,0 27,0 46,1 8,1 13,1 14,1 7,0 12,1 13,2 2,2 2,3 2,6 0,5 -2,14 -5,24 -2,6 -4,10 -6,12 -2,2 -4,3 -8,3 -2,0 -6,0 -11,-1 -14,0 -32,-1 -54,-2z"/>
    <g>
     <path class="fil0" d="M358 1900c7,-3 15,-5 23,-5 10,-1 19,-1 29,-1 16,0 32,1 48,2 4,0 8,1 13,1 0,0 0,0 1,0 14,0 27,3 38,12 0,0 1,0 1,1 10,9 16,22 16,36 0,13 -4,26 -8,38 -3,9 -7,18 -13,25 1,3 1,7 1,10 0,15 -5,30 -11,44 -2,5 -4,10 -7,15 1,3 1,7 1,11 0,9 -1,17 -3,25 -2,8 -5,16 -9,23 -10,19 -29,29 -50,29 -1,0 -1,0 -1,0l-27 -1 -15 0c-11,0 -24,0 -35,-4 0,0 -1,0 -1,0 -15,-6 -25,-18 -33,-31 -1,0 -1,-1 -1,-1 -4,7 -9,14 -15,20 -10,11 -24,16 -38,16 -13,0 -25,-2 -36,-6 -9,-4 -17,-8 -24,-14 -22,16 -50,22 -78,22 -14,0 -29,-1 -41,-8 -12,-7 -23,-21 -32,-33 -8,-10 -14,-22 -14,-35 0,-13 8,-36 11,-49 2,-8 4,-16 7,-24 -7,-8 -10,-19 -10,-30 0,-12 4,-26 7,-37 4,-11 8,-21 16,-30 0,0 0,0 0,0 6,-7 14,-11 22,-15 0,0 0,0 1,0 10,-4 21,-7 32,-9 10,-3 22,-4 32,-4 20,0 39,4 57,12 9,-7 21,-11 34,-11 14,0 28,2 41,7 0,0 1,0 1,0 2,1 3,2 4,2 9,-6 19,-9 30,-9 12,0 24,2 36,6z"/>
     <path class="fil1" d="M359 1924c1,-1 1,-1 1,-1 6,-5 14,-7 22,-7 9,-1 19,-1 28,-1 16,0 31,1 47,2 4,0 9,0 13,0 0,0 1,1 1,1 9,0 18,1 26,7 0,0 0,0 0,0 6,6 9,13 9,21 0,11 -3,22 -6,32 -3,6 -6,14 -11,19 -2,2 -5,4 -8,6 3,4 5,10 5,16 0,12 -4,25 -9,36 -2,6 -5,12 -10,16 -1,1 -1,2 -2,2 3,5 4,10 4,16 0,7 -1,13 -3,20 -1,6 -3,12 -6,18 -7,12 -19,18 -32,18 -1,0 -1,0 -1,0l-27 0 -15 0c-8,0 -20,0 -28,-3 0,0 0,0 0,-1 -10,-4 -18,-13 -24,-22 -5,-7 -8,-15 -8,-24 0,-5 1,-9 2,-14l3 -14c-1,-3 -3,-5 -4,-8l-29 58c0,0 0,0 0,0 -3,6 -7,13 -12,18 -6,6 -14,9 -23,9 -10,0 -20,-2 -29,-5 -7,-3 -14,-6 -19,-12 -4,-4 -6,-9 -7,-14 0,0 0,0 -1,1 -21,24 -51,32 -82,32 -10,0 -22,0 -31,-5 -9,-5 -19,-19 -25,-27 -5,-7 -10,-15 -10,-23 0,-5 2,-12 3,-17 2,-9 5,-18 7,-26 3,-13 7,-25 10,-36 -8,-5 -12,-14 -12,-24 0,-9 4,-22 6,-31 3,-7 6,-16 11,-22 0,0 1,0 1,0 4,-4 8,-7 14,-10 0,0 0,0 0,0 10,-3 19,-6 29,-8 9,-2 19,-3 28,-3 21,0 41,5 58,17 1,0 2,1 3,2 5,-12 16,-19 30,-19 12,0 23,2 34,6 0,0 0,1 0,1 6,2 10,6 14,10 1,-1 2,-3 3,-4 6,-8 15,-12 25,-12 13,0 25,3 36,8 0,0 1,0 1,1zm-134 141c2,-4 4,-8 6,-12 -1,-7 -2,-14 -4,-22 0,0 0,-1 0,-1 -2,3 -5,6 -8,9 4,8 6,17 6,26z"/>
    </g>
    <path class="fil2" d="M190 2034c10,11 15,22 15,32 0,12 -5,24 -14,34 -15,17 -37,25 -67,25 -11,0 -17,0 -21,-2 -3,-2 -9,-9 -19,-22 -3,-5 -5,-8 -5,-10 0,-3 3,-16 9,-38 6,-21 12,-43 19,-65 -2,1 -5,2 -9,4 -4,1 -6,2 -8,2 -2,0 -4,-2 -4,-6 0,-4 2,-12 6,-24 3,-8 5,-13 7,-15 1,-2 4,-3 7,-4 7,-3 16,-6 25,-8 10,-2 18,-3 24,-3 18,0 33,5 47,14 14,9 20,22 20,38 0,19 -10,35 -32,48zm-65 -51c7,1 14,2 20,5 5,1 7,4 7,7 0,1 -1,3 -2,7l-3 14c6,-1 12,-3 16,-6 7,-5 11,-11 11,-17 0,-10 -8,-15 -23,-15 -9,0 -17,2 -26,5zm18 46l-15 54c2,1 4,1 6,1 7,0 12,-2 17,-6 4,-4 7,-9 7,-13 0,-3 -1,-5 -3,-7 -1,-1 -3,-2 -5,-4 -2,0 -3,-2 -4,-5 -1,-6 -2,-13 -3,-20zm110 27c-1,-7 -3,-17 -5,-28 -4,-20 -7,-41 -11,-65 -2,-9 -2,-14 -2,-17 0,-7 4,-11 11,-11 9,0 18,2 27,5 3,1 5,4 6,8 2,14 4,29 4,46 0,1 0,4 0,10 1,-4 5,-13 12,-28 8,-19 14,-31 18,-35 2,-4 5,-5 9,-5 10,0 19,2 27,6 4,1 6,4 6,8 0,3 -2,9 -6,17l-70 140c-4,7 -6,11 -9,13 -1,2 -4,3 -8,3 -7,0 -14,-1 -22,-4 -5,-2 -9,-4 -10,-5 -1,-1 -2,-3 -2,-4 0,-3 2,-7 6,-14 5,-11 12,-24 19,-40zm148 -73c3,1 5,2 6,3 5,2 8,4 10,5 1,1 2,2 2,4 0,3 -1,9 -4,16 3,0 7,1 13,1 18,0 29,1 32,2 4,0 5,2 5,5 0,7 -2,17 -7,28 -2,5 -4,7 -5,9 -2,2 -4,2 -7,2 -2,0 -4,0 -7,0 -16,-1 -29,-2 -38,-1l-6 24c5,0 11,0 20,0 17,0 26,0 29,1 3,1 4,3 4,7 0,4 0,9 -2,14 -1,6 -3,11 -5,15 -2,4 -7,6 -13,6l-27 0 -16 0c-11,0 -18,-1 -20,-2 -5,-2 -9,-6 -14,-14 -4,-5 -5,-10 -5,-13 0,-2 0,-5 1,-9l7 -29c-3,-1 -4,-1 -6,-2 -1,-1 -2,-3 -2,-6 0,-6 1,-15 4,-25 3,-7 5,-11 9,-12 1,0 4,-1 9,-1l8 -28c-4,0 -7,0 -10,-1 -3,-1 -5,-2 -5,-6 0,-1 1,-6 3,-12 2,-6 4,-12 6,-18 1,-4 2,-6 4,-7 1,-2 4,-2 9,-2 6,-1 15,-1 27,-1 12,0 27,1 46,2 8,0 13,0 14,0 7,1 12,1 13,3 2,1 2,3 2,5 0,6 -2,14 -5,25 -2,6 -4,10 -6,11 -2,2 -4,3 -8,3 -2,0 -6,0 -11,0 -14,-1 -32,-2 -54,-2z"/>
   </g>
   <g>
    <path class="fil0" d="M685 2175c11,-8 23,-14 36,-19 14,-5 29,-9 44,-9 10,0 20,2 28,6 6,-2 12,-3 19,-3 30,0 54,19 68,46 13,27 18,58 18,88 0,42 -10,84 -27,123 -14,33 -35,62 -65,84 -24,17 -52,28 -83,28 -34,0 -65,-14 -89,-38 -2,-2 -3,-4 -5,-6 -25,26 -59,39 -97,39 -31,0 -61,-9 -85,-29 0,0 -1,-1 -1,-1 -3,2 -6,5 -9,7 -24,17 -53,28 -83,28 -33,0 -62,-13 -85,-34 -11,13 -26,23 -43,26 -8,1 -15,2 -23,2 -10,0 -21,-2 -32,-4 -6,-2 -12,-4 -18,-6 -13,8 -29,12 -45,12 -18,0 -35,-3 -51,-10 -3,-1 -5,-2 -7,-3 -13,8 -29,12 -44,12 -16,0 -31,-4 -46,-9 -11,5 -23,8 -35,8 -21,0 -41,-4 -59,-14 -24,-12 -40,-35 -40,-62 0,-26 16,-72 23,-97 10,-32 20,-63 31,-95 6,-17 13,-37 22,-53 9,-17 24,-31 43,-37 0,0 1,0 2,-1 8,-2 17,-3 26,-3 10,0 21,2 31,4 11,2 21,5 31,9 6,3 12,7 18,11 14,-15 34,-22 55,-22 13,0 27,2 40,6 0,0 0,0 1,0 11,3 21,8 30,14 10,-9 21,-16 35,-20 7,-2 15,-2 23,-2 16,0 32,2 47,7 12,3 23,9 32,17 11,-8 23,-14 35,-19 15,-5 29,-9 45,-9 10,0 19,2 28,6 6,-2 12,-3 19,-3 30,0 54,19 67,46 7,13 12,28 15,43 0,-1 0,-3 0,-4 1,-1 1,-3 1,-4 5,-21 12,-43 28,-59 15,-15 35,-22 56,-22 19,0 38,4 55,12 8,3 15,8 20,13z"/>
    <path class="fil1" d="M679 2218c15,-14 32,-26 52,-34 11,-4 22,-7 34,-7 10,0 19,3 26,9 7,-4 13,-6 21,-6 19,0 33,12 41,29 11,23 15,49 15,75 0,38 -9,76 -24,111 -12,29 -30,53 -55,71 -20,15 -42,23 -66,23 -26,0 -49,-11 -68,-29 -11,-12 -19,-25 -25,-39 -3,6 -6,12 -9,17 -21,32 -52,46 -89,46 -24,0 -47,-7 -66,-22 -8,-6 -14,-14 -18,-21 -9,9 -18,18 -28,25 -20,15 -42,23 -66,23 -27,0 -49,-11 -68,-29 -11,-12 -19,-25 -25,-39 -1,4 -2,7 -2,10 -2,8 -5,17 -7,25 -1,0 -1,0 -1,0 -5,14 -17,23 -31,26 -6,1 -11,1 -17,1 -8,0 -16,-1 -25,-3 -8,-2 -16,-5 -23,-9 -2,-1 -4,-2 -6,-4 -10,12 -24,18 -41,18 -14,0 -27,-2 -40,-7 -8,-3 -15,-8 -19,-14 -1,1 -2,2 -3,3 0,0 0,0 0,0 -11,12 -25,17 -40,17 -12,0 -24,-3 -35,-7 -5,-2 -9,-5 -13,-8 -2,2 -4,4 -7,6 -8,6 -17,8 -26,8 -16,0 -31,-3 -45,-10 -14,-7 -24,-20 -24,-36 0,-11 4,-24 6,-34 5,-18 10,-36 16,-54 10,-31 20,-63 30,-94 6,-15 12,-35 20,-49 5,-10 14,-19 26,-23 0,0 0,0 1,0 6,-1 12,-2 18,-2 8,0 17,1 25,3 9,2 17,4 25,8 16,7 25,21 27,38 0,0 0,0 0,0 1,-1 2,-2 2,-3 6,-9 13,-22 21,-30 9,-10 22,-15 35,-15 10,0 21,3 31,5 0,1 1,1 1,1 10,3 20,7 28,15 10,8 14,20 14,32 0,0 0,1 0,1 2,-4 3,-8 4,-12 2,-6 4,-13 7,-18 6,-12 16,-21 28,-24 5,-1 11,-1 16,-1 13,0 26,1 39,5 17,5 30,16 34,32 15,-14 32,-26 52,-34 11,-4 22,-7 34,-7 10,0 19,3 26,9 6,-4 13,-6 21,-6 19,0 33,12 41,29 11,23 15,49 15,75 0,7 -1,15 -1,23 0,0 1,0 1,0 11,0 22,1 32,4 1,1 3,1 4,2 3,-10 5,-20 8,-30 4,-13 9,-29 12,-42 0,-1 0,-2 0,-3 4,-15 9,-34 20,-45 9,-9 22,-13 35,-13 15,0 30,3 43,9 13,6 23,16 26,29z"/>
   </g>
   <path class="fil2" d="M91 2323l-51 96c-9,17 -14,26 -16,28 -4,5 -10,7 -18,7 -8,0 -16,-2 -24,-5 -6,-2 -10,-5 -11,-9 -1,-2 -1,-8 -1,-16 0,-19 0,-38 1,-54 2,-27 3,-45 3,-51l-28 103c-2,5 -3,9 -3,11 -2,9 -5,15 -9,18 -3,2 -6,3 -9,3 -12,0 -22,-3 -32,-8 -5,-2 -7,-5 -7,-9 0,-9 7,-36 20,-79 25,-78 41,-124 48,-137 2,-5 5,-8 9,-9 2,-1 6,-1 10,-1 5,0 11,1 19,2 8,2 14,4 19,6 6,2 9,7 10,15 1,11 2,35 2,70 0,19 -1,37 -4,53 20,-43 39,-81 59,-114 8,-14 13,-22 17,-25 3,-4 7,-6 13,-6 7,0 14,2 23,4 8,3 14,5 17,9 3,2 4,6 4,10 0,3 0,10 -1,21l-18 158c-1,15 -2,23 -3,25 -2,11 -10,16 -22,16 -11,0 -21,-2 -29,-5 -6,-2 -9,-6 -9,-11 0,-4 2,-18 6,-42 4,-24 8,-41 10,-51 3,-12 4,-19 5,-23zm146 -113c10,0 20,2 31,5 9,3 14,7 14,14 0,3 -3,11 -7,26 -3,9 -8,28 -16,57 -8,29 -14,49 -16,60 -11,45 -18,69 -19,73 -2,4 -5,6 -10,7 -3,1 -7,1 -11,1 -5,0 -11,-1 -18,-2 -6,-2 -12,-4 -16,-6 -6,-4 -9,-8 -9,-14 0,-8 7,-39 22,-92 6,-22 14,-46 22,-73 9,-28 14,-43 16,-47 2,-4 5,-7 9,-8 1,0 4,-1 8,-1zm167 28l5 -4c12,-11 21,-18 25,-21 3,-2 6,-3 9,-3 5,0 10,4 14,12 8,16 12,37 12,62 0,32 -7,65 -22,100 -10,25 -25,44 -45,58 -15,12 -32,17 -48,17 -18,0 -33,-7 -47,-20 -17,-17 -25,-40 -25,-70 0,-36 9,-69 27,-101 16,-27 38,-46 64,-56 8,-3 15,-5 23,-5 7,0 11,3 11,9 0,5 -1,12 -3,22zm-4 16c0,2 -1,4 -1,5 -2,5 -3,8 -4,9 -1,1 -3,3 -7,5 -13,9 -23,22 -31,39 -8,20 -12,38 -12,54 0,9 1,16 5,20 3,5 7,7 11,7 9,0 17,-8 26,-25 11,-23 17,-51 17,-82 0,-11 -1,-22 -4,-32zm99 83c8,0 16,1 24,3 7,2 10,5 10,10 0,3 -1,9 -4,17 -3,10 -5,18 -5,21 0,3 1,5 2,7 2,2 4,3 7,3 5,0 9,-3 12,-10 2,-5 5,-17 10,-37 5,-18 10,-38 17,-60 8,-28 12,-43 12,-46 4,-17 8,-27 12,-30 3,-3 7,-5 14,-5 11,0 22,2 31,7 7,2 10,7 10,12 0,4 -3,15 -8,34 -8,26 -17,62 -28,107 -6,25 -13,42 -19,52 -14,22 -35,32 -64,32 -19,0 -34,-5 -47,-15 -13,-10 -19,-23 -19,-39 0,-15 3,-31 10,-49 2,-7 5,-11 8,-12 3,-2 8,-2 15,-2zm274 -99l5 -4c13,-11 21,-18 25,-21 3,-2 6,-3 9,-3 5,0 10,4 14,12 8,16 12,37 12,62 0,32 -7,65 -22,100 -10,25 -25,44 -44,58 -16,12 -32,17 -49,17 -18,0 -33,-7 -47,-20 -17,-17 -25,-40 -25,-70 0,-36 9,-69 28,-101 16,-27 37,-46 63,-56 8,-3 16,-5 23,-5 7,0 11,3 11,9 0,5 -1,12 -3,22zm-3 16c-1,2 -2,4 -2,5 -1,5 -3,8 -4,9 0,1 -3,3 -7,5 -13,9 -23,22 -31,39 -8,20 -12,38 -12,54 0,9 1,16 5,20 3,5 7,7 11,7 9,0 17,-8 26,-25 12,-23 17,-51 17,-82 0,-11 -1,-22 -3,-32z"/>
   <g>
    <path class="fil3" d="M746 1698l0 -102c1,-9 20,-9 22,-1l0 101c-1,12 -20,9 -22,2zm-101 -86c-2,-13 18,-13 21,-4l19 92c2,13 -18,13 -21,4l-19 -92zm232 0c-2,8 -17,88 -19,92 -3,8 -23,9 -21,-5l19 -92c3,-8 23,-8 21,5zm-290 -8c2,4 15,64 17,74 3,14 13,60 17,74l264 0c6,-18 10,-38 14,-57l21 -85c2,-8 1,-6 10,-7 22,-2 51,-10 62,-26 15,-19 -4,-36 -17,-43 -12,-6 -27,-10 -41,-12 -20,-2 -6,3 -21,-14 -8,-10 -17,-17 -29,-24 -61,-35 -170,-37 -236,-12 -11,5 -20,8 -29,14 -1,0 -1,0 -2,0 -2,2 -3,2 -5,4 -2,2 -3,2 -5,3 -9,7 -16,13 -22,23 -4,7 -1,5 -11,6 -21,2 -49,9 -62,26 -15,19 4,36 18,43 13,7 26,10 41,12 5,0 12,0 16,1z"/>
    <path class="fil3" d="M756 1826c-97,0 -176,74 -176,166 0,91 79,165 176,165 98,0 177,-74 177,-165 0,-92 -79,-166 -177,-166z"/>
    <g>
     <path class="fil0" d="M865 1976l-33 -7c-1,0 -1,0 -2,-1 -2,0 -3,0 -4,-1 -1,0 -1,0 -2,0l-36 -11c0,-1 -1,-1 -1,-1 -1,0 -2,0 -3,-1 -2,0 -4,-1 -6,-2 -30,-12 -50,-22 -77,-38 -1,0 -1,0 -1,0 -1,-1 -2,-1 -3,-2l-7 -5c-20,8 -29,25 -35,46 -7,23 -9,53 -8,78 1,13 3,29 2,42 -2,22 -17,39 -38,43 -21,5 -41,-4 -52,-23 -20,-37 -36,-72 -44,-113 -10,-55 -1,-111 27,-158 0,-8 0,-16 0,-24 0,-10 1,-20 0,-30 -3,-17 -7,-35 -11,-52 -4,-18 -8,-36 -12,-54 -18,-5 -34,-13 -51,-24 -1,-1 -2,-2 -3,-3l-3 -3c-1,0 -1,0 -1,0 -3,-2 -5,-4 -7,-6 -21,-21 -33,-50 -26,-80 10,-50 59,-76 105,-87 20,-21 50,-38 78,-48 89,-34 203,-32 292,4 18,7 34,16 50,28 1,1 3,2 5,4 2,1 4,3 6,5 3,2 5,5 8,7 10,2 18,5 28,9 28,11 52,27 67,53 13,22 15,48 6,72 -1,2 -2,4 -3,6 0,1 -1,1 -1,2 0,0 0,0 0,0l-1 2c0,1 -1,1 -1,2 -7,12 -15,20 -25,28 -18,15 -35,23 -54,28 -2,7 -3,15 -5,22l-14 62c-2,7 -4,16 -5,24 -1,11 0,25 0,35 0,3 0,6 0,9 2,5 4,9 6,14 7,15 11,29 15,45 4,17 7,35 8,53 2,39 -3,81 -17,118 -4,11 -9,23 -15,33 -10,19 -31,29 -52,24 -21,-5 -36,-21 -38,-43l-6 -81zm-206 -272l189 0c2,-7 3,-14 5,-20l20 -84c4,-15 9,-26 22,-35 1,-1 2,-2 3,-3 -3,-1 -5,-3 -8,-6 -5,-5 -9,-10 -12,-16 0,0 0,0 -1,-1 -5,-5 -11,-9 -17,-13 -49,-29 -144,-29 -195,-9 -8,3 -15,6 -22,10 -1,1 -2,1 -3,2 0,0 0,0 0,0 0,0 -1,0 -1,0 -1,1 -2,2 -3,2 0,0 0,0 0,0 -4,3 -8,6 -10,10 -6,10 -12,16 -18,20 10,5 17,13 22,23 6,12 10,34 13,47 2,12 5,24 8,36 2,12 5,24 8,37z"/>
     <path class="fil1" d="M887 1955c-4,-1 -9,-1 -13,-2 -1,0 -2,0 -2,0l-35 -7c0,0 -1,-1 -1,-1 -1,0 -3,0 -4,-1 0,0 0,0 -1,0l-36 -11c0,0 0,0 0,0 -1,-1 -2,-1 -3,-1 -2,-1 -4,-2 -5,-2 -14,-6 -28,-11 -42,-18 -11,-6 -22,-12 -33,-18 0,-1 0,-1 0,-1 -1,0 -1,0 -2,-1l-16 -11c0,1 -1,1 -1,1 -34,6 -51,32 -61,63 -8,27 -10,59 -9,87 1,12 3,27 2,40 -1,10 -8,19 -19,21 -10,2 -21,-2 -26,-12 -19,-34 -34,-67 -42,-106 -9,-49 0,-100 26,-143 1,-1 1,-2 2,-3 0,-11 0,-21 0,-31 0,-11 1,-22 0,-32 -1,-6 -2,-13 -4,-19 -2,-12 -5,-24 -8,-36 -4,-18 -8,-37 -12,-55 -1,-4 -2,-9 -3,-13 -21,-5 -38,-12 -57,-25 -1,0 -1,-1 -2,-1l-3 -3c-1,0 -1,-1 -1,-1 -2,-1 -3,-2 -5,-4 -15,-15 -25,-36 -20,-58 9,-42 56,-62 93,-70 1,0 1,0 1,0 1,-1 2,-2 2,-2 18,-20 47,-36 72,-45 84,-32 191,-31 275,3 16,7 30,15 45,25 1,1 3,2 4,3 2,2 3,3 5,5 4,4 8,7 12,11 0,0 1,1 2,1 11,2 19,4 30,8 22,9 42,22 55,43 9,15 10,34 3,51 0,2 -1,3 -2,5 0,0 0,1 0,1 0,0 -1,0 -1,0l0 2c-1,0 -1,1 -1,1 -5,9 -11,15 -19,22 -13,11 -29,18 -45,23 -5,2 -10,3 -15,4 -2,12 -5,24 -7,36l-14 62c-2,8 -5,18 -6,26 -1,12 0,27 0,39 0,4 0,10 0,14 3,6 6,11 8,17 6,15 10,27 14,42 4,16 6,32 7,48 2,36 -3,75 -16,108 -3,10 -8,22 -13,31 -5,9 -15,14 -26,12 -10,-3 -18,-11 -19,-22l-8 -100zm-247 -227l227 0c3,-13 6,-26 9,-38l21 -85c1,-9 4,-15 12,-21 7,-5 11,-4 19,-5 12,-1 38,-6 45,-16 -2,-3 -7,-6 -9,-7 -10,-6 -22,-9 -33,-10 -9,-1 -17,0 -25,-8 -5,-4 -6,-10 -11,-14 -6,-8 -14,-14 -23,-19 -55,-32 -157,-33 -216,-10 -9,3 -17,7 -25,11 -1,1 -1,1 -2,1 0,0 0,0 0,0 -1,1 -2,2 -3,3 -2,1 -3,1 -5,2 -6,5 -11,9 -15,16 -4,6 -5,9 -11,13 -7,4 -12,4 -19,5 -12,1 -36,6 -45,17 2,2 7,5 9,7 11,5 22,8 34,9 6,1 12,1 18,2 7,1 13,6 17,13 2,5 3,12 5,18 2,8 3,16 5,24 3,12 6,24 8,37 3,12 6,24 9,36 1,6 2,12 4,19zm5 74l0 5 214 0 0 -5 -214 0z"/>
    </g>
    <path class="fil4" d="M621 1778l262 0 0 53 -262 0 0 -53zm-34 -174c-4,-1 -11,-1 -16,-1 -15,-2 -28,-5 -41,-12 -14,-7 -33,-24 -18,-43 13,-17 41,-24 62,-26 10,-1 7,1 11,-6 6,-10 13,-16 22,-23 2,-1 3,-1 5,-3 2,-2 3,-2 5,-4 1,0 1,0 2,0 9,-6 18,-9 29,-14 66,-25 175,-23 236,12 12,7 21,14 29,24 15,17 1,12 21,14 14,2 29,6 41,12 13,7 32,24 17,43 -11,16 -40,24 -62,26 -9,1 -8,-1 -10,7l-21 85c-4,19 -8,39 -14,57l-264 0c-4,-14 -14,-60 -17,-74 -2,-10 -15,-70 -17,-74zm332 449c4,-6 9,-19 12,-27 11,-30 16,-66 14,-99 0,-15 -3,-29 -6,-43 -4,-17 -7,-24 -13,-39 -11,-27 -9,-11 -10,-40 0,-44 -1,-36 6,-70l14 -63c3,-13 6,-27 9,-41 1,-5 1,-8 4,-9 4,-2 38,-5 62,-25 6,-5 10,-9 14,-16l1 -1c0,-1 0,-1 0,-1 1,-1 2,-2 2,-4 4,-10 3,-21 -2,-30 -9,-16 -26,-26 -43,-33 -19,-7 -24,-6 -35,-9 -3,-1 -2,-1 -4,-3 -3,-5 -8,-9 -12,-13 -2,-1 -2,-1 -4,-3 -1,-1 -2,-1 -3,-2 -13,-9 -24,-16 -40,-23 -79,-32 -180,-32 -258,-3 -24,9 -48,24 -62,39 -1,1 -2,2 -3,3 -6,6 -1,4 -13,6 -27,6 -68,22 -75,52 -3,16 7,29 14,36 1,1 2,2 3,3l4 3c21,14 38,20 64,24 2,8 4,19 6,28 4,15 25,108 25,113 1,11 0,24 0,35 0,12 0,23 0,35 0,5 -3,8 -5,11 -22,36 -32,81 -23,127 7,39 23,70 39,99 1,-8 -1,-28 -1,-37 -2,-30 1,-66 9,-95 13,-39 35,-71 79,-80 2,0 4,0 5,-1 1,0 2,0 4,0 4,-1 4,0 6,2l21 14c0,0 0,0 0,0 31,17 36,20 71,34 2,1 3,1 4,2 1,0 3,1 4,1l35 11c2,1 3,1 4,1l35 7c11,2 21,4 32,5l10 119z"/>
    <g>
     <path class="fil5" d="M907 1951c2,20 4,40 5,60 1,10 2,20 4,30 0,7 1,13 2,20 0,5 1,11 1,16 0,3 -1,5 -2,7 -35,52 -84,79 -147,85l-4 0c0,0 0,0 0,0 -27,2 -57,-3 -83,-13 -7,-3 -15,-6 -22,-10 -1,-1 -2,-1 -2,-2 -6,-3 -11,-7 -17,-10 -5,-4 -12,-9 -16,-13 -4,-4 -10,-9 -13,-13 -3,-5 -3,-14 -4,-20 -3,-19 -6,-38 -7,-57 -2,-61 12,-143 81,-160 6,-2 12,-4 18,-2 6,1 10,5 15,8 39,27 106,51 153,58 9,2 21,2 30,5 4,2 8,6 8,11zm-92 30l-3 1c0,0 0,0 0,0 -1,0 -2,0 -3,0 -1,0 -1,1 -1,1 -2,1 -2,1 -3,3 -2,2 -3,6 -2,9 2,6 7,10 14,8 3,-1 6,-3 7,-7 3,-7 -1,-14 -9,-15zm-128 0c-6,2 -10,7 -9,13 1,5 3,8 7,9 2,0 4,0 6,0 7,-1 11,-6 9,-14 -1,-5 -7,-9 -13,-8zm16 83c2,1 5,3 7,4 -1,-1 -3,-2 -4,-3 -1,0 -2,-1 -3,-1zm96 4c2,-1 4,-2 6,-3 1,0 1,-1 2,-1 0,0 0,0 0,0 -2,1 -4,2 -5,3 -1,0 -2,1 -3,1z"/>
     <path class="fil1" d="M901 1951c2,20 4,41 5,61 1,10 2,20 3,30 1,6 2,13 3,20 0,5 1,10 1,15 0,1 -1,2 -1,3 -34,51 -82,77 -142,82l-4 1c0,0 0,0 -1,0 -26,2 -55,-3 -79,-13 -8,-3 -15,-6 -22,-10 -1,0 -2,-1 -2,-1 -6,-3 -11,-7 -16,-10 -5,-4 -11,-8 -16,-12 -2,-3 -4,-5 -7,-7 -1,-2 -3,-3 -4,-5 -3,-4 -3,-13 -4,-18 -3,-19 -6,-37 -7,-56 -2,-58 11,-138 76,-154 16,-4 15,-4 28,5 40,28 108,52 156,59 4,1 9,2 13,2 5,1 11,1 16,3 2,1 4,3 4,5zm-86 24l-5 1c-3,0 -2,-1 -6,2 -2,1 -3,2 -4,4 -4,4 -4,10 -3,15 3,9 12,14 21,12 6,-1 10,-5 12,-11 4,-11 -3,-23 -15,-23zm-129 0c-10,2 -16,11 -14,21 5,22 39,15 34,-8 -2,-9 -11,-15 -20,-13zm10 90c1,4 19,12 24,14 30,12 61,7 88,-9 3,-1 6,-4 5,-7 0,-3 -4,-6 -7,-5 -2,0 -4,2 -6,2 -3,2 -7,4 -11,6 -12,6 -25,8 -39,7 -12,0 -22,-3 -33,-8 -3,-2 -11,-7 -14,-8 -1,0 -2,0 -3,1 -2,1 -5,4 -4,7z"/>
    </g>
    <path class="fil6" d="M690 2066c-2,-7 4,-12 8,-14 13,-6 17,13 53,15 31,2 47,-14 54,-15 11,-2 23,14 6,24 -28,16 -62,21 -93,9 -9,-4 -27,-12 -28,-19zm-5 -97c14,-3 25,7 27,18 7,31 -39,40 -46,10 -3,-15 7,-26 19,-28zm129 -1c28,1 32,41 6,47 -23,5 -37,-20 -25,-37 1,-2 3,-4 6,-5 5,-4 6,-3 8,-4l5 -1zm81 -16c-6,-2 -21,-3 -28,-4 -50,-8 -119,-34 -158,-61 -11,-7 -9,-7 -23,-4 -61,15 -74,91 -72,147 1,21 4,37 7,56 3,20 0,12 14,26 4,5 23,18 30,21 0,1 1,1 2,2 7,4 13,6 21,10 23,9 51,13 77,12l4 -1c59,-5 104,-29 137,-79 1,-13 -5,-48 -6,-65 -1,-18 -3,-40 -5,-60z"/>
    <polygon class="fil3" points="621,1831 883,1831 883,1778 621,1778 "/>
    <path class="fil4" d="M690 2066c1,7 19,15 28,19 31,12 65,7 93,-9 17,-10 5,-26 -6,-24 -7,1 -23,17 -54,15 -36,-2 -40,-21 -53,-15 -4,2 -10,7 -8,14z"/>
    <path class="fil4" d="M746 1698c2,7 21,10 22,-2l0 -101c-2,-8 -21,-8 -22,1l0 102z"/>
    <path class="fil4" d="M877 1612c2,-13 -18,-13 -21,-5l-19 92c-2,14 18,13 21,5 2,-4 17,-84 19,-92z"/>
    <path class="fil4" d="M664 1704c3,9 23,9 21,-4l-19 -92c-3,-9 -23,-9 -21,4l19 92z"/>
    <path class="fil4" d="M685 1969c-12,2 -22,13 -19,28 7,30 53,21 46,-10 -2,-11 -13,-21 -27,-18z"/>
    <path class="fil4" d="M809 1969c-2,1 -3,0 -8,4 -3,1 -5,3 -6,5 -12,17 2,42 25,37 26,-6 22,-46 -6,-47l-5 1z"/>
   </g>
  </g>
 </g>
</svg>
