<?xml version="1.0" standalone="no"?>
<!DOCTYPE svg PUBLIC "-//W3C//DTD SVG 20010904//EN"
 "http://www.w3.org/TR/2001/REC-SVG-20010904/DTD/svg10.dtd">
<svg version="1.0" xmlns="http://www.w3.org/2000/svg"
 width="258.000000pt" height="195.000000pt" viewBox="0 0 258.000000 195.000000"
 preserveAspectRatio="xMidYMid meet">

<g transform="translate(0.000000,195.000000) scale(0.100000,-0.100000)"
fill="#000000" stroke="none">
<path d="M1020 1882 c0 -10 -13 -37 -30 -58 -71 -92 -81 -112 -82 -153 -1 -59
43 -123 80 -119 34 4 40 30 13 64 -29 37 -26 74 10 124 47 65 60 101 46 130
-15 30 -37 38 -37 12z"/>
<path d="M1235 1854 c-8 -20 -31 -54 -50 -75 -30 -34 -35 -46 -35 -89 0 -34 8
-67 25 -100 28 -54 36 -63 58 -54 27 10 28 34 2 88 -31 66 -31 77 0 114 41 48
57 96 43 127 -15 34 -25 32 -43 -11z"/>
<path d="M960 1509 c-178 -10 -253 -26 -297 -63 l-28 -24 -7 -174 c-12 -313
-10 -880 3 -918 13 -40 61 -95 101 -116 62 -32 147 -45 358 -54 355 -15 468 9
538 115 17 27 32 61 32 76 0 23 6 27 53 38 124 28 231 119 278 238 21 50 24
75 23 183 0 107 -3 134 -23 185 -44 114 -164 203 -296 222 l-42 5 -7 52 c-3
28 -6 65 -6 83 0 67 -43 110 -125 127 -36 7 -353 37 -375 34 -8 0 -89 -5 -180
-9z m400 -65 c69 -9 129 -20 134 -25 6 -5 -9 -25 -35 -48 -55 -50 -86 -55 -39
-6 18 19 31 37 29 40 -3 2 -23 -13 -44 -35 -22 -22 -48 -40 -59 -40 -17 0 -16
4 12 33 51 53 37 54 -19 2 -48 -45 -82 -57 -44 -15 24 27 16 25 -25 -5 -41
-30 -60 -33 -35 -5 24 26 12 25 -25 -2 -33 -24 -51 -18 -29 9 13 17 13 17 -7
1 -11 -10 -33 -18 -49 -18 -27 0 -28 0 -10 20 10 11 14 20 8 20 -5 0 -18 -9
-28 -20 -10 -11 -29 -20 -43 -20 l-25 0 24 26 c21 24 22 26 3 16 -11 -6 -26
-18 -34 -26 -7 -9 -22 -16 -33 -16 -20 0 -20 1 3 25 13 14 19 25 13 25 -5 0
-20 -11 -33 -25 -22 -23 -50 -34 -50 -18 0 4 12 20 27 35 15 15 22 28 17 28
-6 0 -23 -13 -39 -30 -17 -18 -39 -30 -54 -30 l-25 0 34 35 c19 19 29 35 24
35 -6 0 -25 -16 -44 -35 -19 -19 -43 -35 -54 -35 -17 0 -12 8 24 45 58 59 39
58 -22 -1 -36 -35 -51 -43 -63 -36 -14 7 -9 15 32 50 62 54 51 55 -13 2 -65
-53 -81 -51 -23 4 45 43 47 44 135 51 49 3 94 8 99 11 18 7 258 -6 385 -22z
m-620 -17 c0 -2 -12 -14 -27 -28 -20 -18 -24 -19 -13 -4 18 24 40 42 40 32z
m810 -26 c-1 -16 -49 -59 -73 -63 -15 -3 -27 -3 -27 0 0 13 77 78 88 74 6 -2
12 -7 12 -11z m10 -36 c-7 -8 -17 -15 -23 -15 -5 0 -2 9 8 20 21 23 35 19 15
-5z m-614 -96 c105 -5 261 -9 347 -7 87 2 157 1 157 -1 0 -2 -11 -17 -25 -33
-39 -47 -20 -46 22 0 28 30 49 43 78 48 l39 7 -40 -49 c-62 -76 -115 -154
-104 -154 5 0 44 48 86 108 l76 107 -6 -57 c-5 -46 -15 -70 -60 -135 -59 -86
-83 -129 -68 -120 5 4 33 43 63 89 l54 82 3 -37 c3 -32 -5 -47 -56 -114 -71
-94 -83 -115 -53 -88 13 11 41 46 63 77 23 32 45 55 49 52 5 -3 9 -21 9 -41 0
-26 -12 -51 -47 -99 -26 -35 -48 -64 -50 -64 -2 0 -18 17 -36 37 -39 45 -113
93 -143 93 -20 0 -21 3 -13 40 11 50 -2 87 -36 96 -37 9 -70 -18 -91 -73 -9
-26 -34 -88 -54 -138 -21 -49 -45 -112 -55 -139 l-18 -49 -18 35 c-10 19 -25
40 -33 47 -24 20 -20 33 19 70 53 50 58 96 12 125 -38 24 -181 -87 -193 -151
-9 -47 17 -111 66 -158 33 -32 48 -40 78 -40 37 0 37 0 37 -38 0 -43 22 -67
61 -67 29 0 70 43 88 93 86 246 100 278 109 260 5 -10 25 -34 43 -53 l34 -36
-29 -35 c-52 -63 -50 -119 5 -140 61 -23 161 75 169 166 2 17 23 60 47 95 l43
63 3 -60 c3 -61 2 -62 -56 -140 -72 -96 -96 -132 -91 -138 3 -2 29 30 59 72
30 42 63 85 72 97 17 21 17 20 18 -16 0 -32 -15 -58 -95 -169 -82 -114 -104
-149 -92 -149 1 0 43 57 92 126 l90 126 3 -47 c3 -46 0 -51 -96 -179 -54 -72
-102 -138 -106 -146 -12 -25 48 48 126 152 l73 97 3 -51 c3 -47 -1 -57 -43
-117 -25 -36 -58 -81 -73 -100 -18 -24 -21 -31 -9 -25 10 6 42 42 72 82 41 54
55 67 60 54 4 -10 -6 -33 -25 -59 -38 -55 -38 -69 0 -23 20 23 30 29 30 18 0
-29 -49 -76 -98 -95 -41 -16 -79 -18 -307 -18 -352 0 -434 18 -477 105 -16 31
-17 77 -15 496 l2 461 30 -9 c16 -5 116 -13 221 -19z m731 -126 c-9 -9 -20
-14 -24 -10 -3 4 2 14 13 21 25 19 33 10 11 -11z m101 -17 c94 -48 153 -144
167 -272 8 -73 -9 -172 -40 -234 -33 -65 -140 -161 -164 -146 -4 3 -17 -1 -27
-9 -31 -24 -50 -19 -28 7 16 19 16 20 1 9 -9 -8 -21 -11 -25 -7 -4 4 5 17 21
28 15 11 27 25 27 31 0 6 -10 1 -23 -11 -13 -12 -27 -22 -31 -22 -16 0 19 32
74 70 62 42 120 103 120 125 0 9 9 23 20 32 14 13 16 19 7 25 -9 6 -9 8 1 8 6
0 12 5 12 11 0 5 -6 7 -12 3 -10 -6 -10 -4 0 7 14 16 16 33 2 24 -5 -3 -10 1
-10 9 0 8 8 20 18 26 14 9 13 10 -8 4 l-25 -7 19 22 c14 16 16 20 5 16 -10 -4
-16 0 -16 9 0 8 4 13 9 10 4 -3 5 1 2 9 -3 8 -1 18 5 22 6 3 11 11 11 17 0 6
-8 4 -18 -5 -29 -26 -38 -20 -12 8 23 24 16 37 -8 13 -17 -17 -27 -1 -11 18
13 16 12 16 -8 5 -22 -11 -34 1 -13 14 6 3 10 11 10 17 0 6 -6 6 -15 -2 -20
-17 -32 -5 -15 15 15 18 0 21 -18 3 -17 -17 -28 -2 -12 17 15 18 0 21 -18 3
-20 -20 -26 1 -6 24 l19 22 -27 -17 c-43 -27 -54 -20 -22 15 l29 31 -36 -26
c-46 -35 -70 -35 -30 -1 17 14 31 31 31 37 0 6 -13 -2 -30 -18 -16 -16 -30
-24 -30 -18 0 14 50 52 68 53 7 0 34 -11 60 -24z m-544 -101 c-4 -8 -10 -15
-15 -15 -4 0 -6 7 -3 15 4 8 10 15 15 15 4 0 6 -7 3 -15z m478 -38 c113 -87
116 -277 4 -342 -24 -14 -48 -25 -54 -25 -9 0 -12 55 -12 200 0 115 4 200 9
200 5 0 29 -15 53 -33z m-762 -90 c0 -2 -10 -12 -22 -23 l-23 -19 19 23 c18
21 26 27 26 19z m230 -31 c0 -3 -4 -8 -10 -11 -5 -3 -10 -1 -10 4 0 6 5 11 10
11 6 0 10 -2 10 -4z m-283 -58 c2 -17 0 -19 -7 -8 -5 8 -6 18 -4 22 8 12 10
10 11 -14z m523 1 c0 -5 -4 -9 -10 -9 -5 0 -10 7 -10 16 0 8 5 12 10 9 6 -3
10 -10 10 -16z m-25 -67 l-28 -27 23 33 c12 18 25 31 28 27 3 -3 -7 -18 -23
-33z m-304 -99 c-12 -20 -14 -14 -5 12 4 9 9 14 11 11 3 -2 0 -13 -6 -23z"/>
</g>
</svg>
