<?xml version="1.0" encoding="UTF-8"?>
<!DOCTYPE svg PUBLIC "-//W3C//DTD SVG 1.1//EN" "http://www.w3.org/Graphics/SVG/1.1/DTD/svg11.dtd">
<!-- Creator: CorelDRAW X8 -->
<svg xmlns="http://www.w3.org/2000/svg" xml:space="preserve" width="40px" height="40px" version="1.1" style="shape-rendering:geometricPrecision; text-rendering:geometricPrecision; image-rendering:optimizeQuality; fill-rule:evenodd; clip-rule:evenodd"
viewBox="0 0 40 40"
 xmlns:xlink="http://www.w3.org/1999/xlink"
 xmlns:svgjs="http://svgjs.com/svgjs">
 <defs>
  <style type="text/css">
   <![CDATA[
    .str0 {stroke:#464646;stroke-width:7.65488}
    .fil3 {fill:#2196F3}
    .fil4 {fill:#90CAF9}
    .fil2 {fill:#BBDEFB}
    .fil0 {fill:white}
    .fil6 {fill:white}
    .fil5 {fill:#A2A2A2;fill-opacity:0.250980}
    .fil1 {fill:#934803;fill-opacity:0.800000}
   ]]>
  </style>
 </defs>
 <g id="Camada_x0020_1">
  <metadata id="CorelCorpID_0Corel-Layer"/>
  <g id="_2459004853888">
   <polygon class="fil0 str0" points="-3809,4009 -3882,3244 -3116,3244 -3190,4009 -3809,4009 " vectorEffect="non-scaling-stroke" strokeWidth="5.616" strokeLinejoin="miter" strokeLinecap="butt" strokeMiterlimit="4"/>
   <g>
    <polygon class="fil1" points="-3811,3650 -3187,3650 -3225,3972 -3772,3972 "/>
   </g>
   <g id="iceLeft">
    <polygon class="fil2" points="-3547,3846 -3693,3869 -3777,3723 -3631,3700 "/>
    <polygon class="fil3" points="-3547,3846 -3454,3731 -3539,3585 -3631,3700 "/>
    <polygon class="fil4" points="-3777,3723 -3685,3608 -3539,3585 -3631,3700 "/>
   </g>
   <g id="iceRight">
    <polygon class="fil2" points="-3436,3930 -3555,3843 -3512,3680 -3393,3768 "/>
    <polygon class="fil3" points="-3436,3930 -3289,3914 -3246,3751 -3393,3768 "/>
    <polygon class="fil4" points="-3512,3680 -3365,3664 -3246,3751 -3393,3768 "/>
   </g>
   <g>
    <path class="fil5" d="M-3218 3334c-13,-1 -25,7 -26,17l-2 32c-1,10 9,19 23,20l2 0c13,0 24,-8 25,-19l2 -31c2,-10 -9,-19 -24,-19l0 0zm-8 109c-14,0 -26,7 -26,18l-35 458 -437 0c-15,0 -26,8 -26,20 0,11 11,19 26,19l461 0c14,0 25,-8 25,-18l37 -477c0,-10 -11,-19 -25,-20l0 0z" fillRule="evenodd"/>
   </g>
  </g>
  <g id="_2459004854912">
  </g>
  <g id="_2459004718368">
  </g>
  <g id="_2459004718912">
  </g>
  <g id="_2459004718944">
  </g>
  <g id="_2459004718016">
  </g>
  <g id="_2459004717440">
  </g>
  <g id="_2459004717600">
  </g>
  <g id="_2459004716864">
  </g>
  <g id="_2459004716160">
  </g>
  <g id="_2459004715968">
  </g>
  <g id="_2459004713984">
  </g>
  <g id="_2459004712960">
  </g>
  <g id="_2459004712448">
  </g>
  <g id="_2459004712832">
  </g>
  <g id="_2459004712640">
  </g>
  <g id="_2459004711776">
  </g>
  <g id="_2459004712320">
  </g>
  <g id="_2459006288032">
  </g>
  <g id="_2459006287808">
  </g>
  <g id="_2459006286816">
  </g>
  <g id="_2459006286304">
  </g>
  <g id="_2459006287424">
  </g>
  <g id="_2459006286720">
  </g>
  <g id="_2459006292896">
  </g>
  <g id="_2459006293952">
  </g>
  <g id="_2459006292928">
  </g>
  <g id="_2459006292800">
  </g>
  <g id="_2459006293664">
  </g>
  <g id="_2459006293408">
  </g>
  <g id="_2459006290208">
  </g>
  <g id="_2459006291488">
  </g>
  <g id="_2459006291392">
  </g>
  <g id="_2459006290656">
  </g>
  <g id="_2459006291840">
  </g>
  <g id="_2459006292032">
  </g>
  <g id="_2459006289952">
  </g>
  <g id="_2459006288448">
  </g>
  <g id="_2459006288160">
  </g>
  <g id="_2459006288384">
  </g>
  <g id="_2459006289024">
  </g>
  <g id="_2459006289728">
  </g>
  <g id="_2459061741120">
  </g>
  <g id="_2459061740480">
  </g>
  <g id="_2459061740192">
  </g>
  <g id="_2459061739968">
  </g>
  <g id="_2459061740864">
  </g>
  <g id="_2459061755904">
  </g>
  <g id="_2459061754560">
  </g>
  <g id="_2459061754496">
  </g>
  <g id="_2459061754688">
  </g>
  <g id="_2459061754720">
  </g>
  <g id="_2459061754912">
  </g>
  <g id="_2459061752704">
  </g>
  <g id="_2459061752640">
  </g>
  <g id="_2459061753792">
  </g>
  <g id="_2459061752736">
  </g>
  <g id="_2459061753696">
  </g>
  <g id="_2459061753856">
  </g>
  <g id="_2459061750560">
  </g>
  <g id="_2459061751040">
  </g>
  <g id="_2459061750752">
   <g>
    <path class="fil6" d="M29 36l-4 0 0 -3c0,-1 1,-1 1,-3 0,-1 -1,-2 -1,-2l0 -3c3,-1 6,-5 6,-8l0 -11c0,-1 -1,-1 -1,-1l-6 0c-1,0 -1,0 -1,0 0,1 0,1 1,1l6 0 0 4c-1,0 -1,0 -2,0 0,0 -1,-1 -2,-1 -1,0 -2,1 -2,1 -1,0 -1,0 -2,0 -1,0 -1,0 -2,0 0,0 -1,-1 -2,-1 -1,0 -2,1 -2,1 -1,0 -1,0 -1,0l0 -4 6 0c0,0 0,0 0,-1 0,0 0,0 0,0l-2 0c0,-3 -2,-5 -5,-5 0,0 0,0 0,0l0 0c0,0 0,0 0,0 -3,0 -5,2 -5,5 0,3 2,5 4,5l0 7c0,3 3,7 7,8l0 3c-1,0 -2,1 -2,2 0,2 1,2 2,3l0 3 -1 0c0,0 -1,0 -1,0 0,1 1,1 1,1l10 0c0,0 1,1 1,1l0 1 -16 0 0 -1c0,0 1,-1 2,-1l0 0c0,0 1,0 1,-1 0,0 -1,0 -1,0l0 0c-2,0 -3,1 -3,2l0 1c0,1 0,1 1,1l16 0c1,0 1,0 1,-1l0 -1c0,-1 -1,-2 -2,-2l0 0zm-11 -31l-3 0 2 -2c1,0 1,1 1,2l0 0zm-3 -4c0,0 1,1 1,1l-1 2 0 -3zm-4 2l2 2 -3 0c0,-1 0,-2 1,-2l0 0zm-1 3l3 0 -2 2c-1,-1 -1,-2 -1,-2l0 0zm3 3c0,0 -1,0 -1,-1l1 -1 0 2zm0 -5l-1 -2c0,0 1,-1 1,-1l0 3zm2 13l0 -6c0,0 1,0 1,0 1,0 1,-1 2,-1 1,0 1,1 2,1 0,0 1,0 2,0 1,0 2,0 2,0 1,0 1,-1 2,-1 1,0 1,1 2,1 0,0 1,0 2,0l0 6c0,4 -4,7 -8,7 -4,0 -7,-3 -7,-7l0 0zm8 8l0 2c0,0 0,0 -1,0 0,0 -1,0 -1,0l0 -2c0,0 1,0 1,0 1,0 1,0 1,0zm0 11l-2 0 0 -2c0,0 1,0 1,0 1,0 1,0 1,0l0 2 0 0zm-1 -3c-1,0 -2,-1 -2,-3 0,-1 1,-2 2,-2 1,0 3,1 3,2 0,2 -2,3 -3,3z" data-original="#000000"/>
   </g>
  </g>
  <g id="_2459061747264">
  </g>
  <g id="_2459061747840">
  </g>
  <g id="_2459061748064">
  </g>
  <g id="_2459061748032">
  </g>
  <g id="_2459061746112">
  </g>
  <g id="_2459061744320">
  </g>
  <g id="_2459061745920">
  </g>
  <g id="_2459061745152">
  </g>
  <g id="_2459061744544">
  </g>
  <g id="_2459061745696">
  </g>
  <g id="_2459061744896">
  </g>
  <g id="_2459061745376">
  </g>
  <g id="_2459061742368">
  </g>
  <g id="_2459061743648">
  </g>
  <g id="_2459061743904">
  </g>
 </g>
</svg>
