<?xml version="1.0" encoding="UTF-8"?>
<!DOCTYPE svg PUBLIC "-//W3C//DTD SVG 1.1//EN" "http://www.w3.org/Graphics/SVG/1.1/DTD/svg11.dtd">
<!-- Creator: CorelDRAW X8 -->
<svg xmlns="http://www.w3.org/2000/svg" xml:space="preserve" width="40px" height="40px" version="1.1" style="shape-rendering:geometricPrecision; text-rendering:geometricPrecision; image-rendering:optimizeQuality; fill-rule:evenodd; clip-rule:evenodd"
viewBox="0 0 40 40"
 xmlns:xlink="http://www.w3.org/1999/xlink"
 xmlns:svgjs="http://svgjs.com/svgjs">
 <defs>
  <style type="text/css">
   <![CDATA[
    .str0 {stroke:#464646;stroke-width:7.65488}
    .fil3 {fill:#2196F3}
    .fil4 {fill:#90CAF9}
    .fil2 {fill:#BBDEFB}
    .fil0 {fill:white}
    .fil6 {fill:white}
    .fil5 {fill:#A2A2A2;fill-opacity:0.250980}
    .fil1 {fill:#934803;fill-opacity:0.800000}
   ]]>
  </style>
 </defs>
 <g id="Camada_x0020_1">
  <metadata id="CorelCorpID_0Corel-Layer"/>
  <g id="_2459065263744">
   <polygon class="fil0 str0" points="-3809,4009 -3882,3244 -3116,3244 -3190,4009 -3809,4009 " vectorEffect="non-scaling-stroke" strokeWidth="5.616" strokeLinejoin="miter" strokeLinecap="butt" strokeMiterlimit="4"/>
   <g>
    <polygon class="fil1" points="-3811,3650 -3187,3650 -3225,3972 -3772,3972 "/>
   </g>
   <g id="iceLeft">
    <polygon class="fil2" points="-3547,3846 -3693,3869 -3777,3723 -3631,3700 "/>
    <polygon class="fil3" points="-3547,3846 -3454,3731 -3539,3585 -3631,3700 "/>
    <polygon class="fil4" points="-3777,3723 -3685,3608 -3539,3585 -3631,3700 "/>
   </g>
   <g id="iceRight">
    <polygon class="fil2" points="-3436,3930 -3555,3843 -3512,3680 -3393,3768 "/>
    <polygon class="fil3" points="-3436,3930 -3289,3914 -3246,3751 -3393,3768 "/>
    <polygon class="fil4" points="-3512,3680 -3365,3664 -3246,3751 -3393,3768 "/>
   </g>
   <g>
    <path class="fil5" d="M-3218 3334c-13,-1 -25,7 -26,17l-2 32c-1,10 9,19 23,20l2 0c13,0 24,-8 25,-19l2 -31c2,-10 -9,-19 -24,-19l0 0zm-8 109c-14,0 -26,7 -26,18l-35 458 -437 0c-15,0 -26,8 -26,20 0,11 11,19 26,19l461 0c14,0 25,-8 25,-18l37 -477c0,-10 -11,-19 -25,-20l0 0z" fillRule="evenodd"/>
   </g>
  </g>
  <g id="_2459065265280">
  </g>
  <g id="_2459065265024">
  </g>
  <g id="_2459065264736">
  </g>
  <g id="_2459065263456">
  </g>
  <g id="_2459065263872">
  </g>
  <g id="_2459065262336">
  </g>
  <g id="_2459065262144">
  </g>
  <g id="_2459065261728">
  </g>
  <g id="_2459065263360">
  </g>
  <g id="_2459065263008">
  </g>
  <g id="_2459065263296">
  </g>
  <g id="_2459065263232">
  </g>
  <g id="_2459065260992">
  </g>
  <g id="_2459065260928">
  </g>
  <g id="_2459065260032">
  </g>
  <g id="_2459065261184">
  </g>
  <g id="_2459065259808">
  </g>
  <g id="_2459065261248">
  </g>
  <g id="_2459065257632">
  </g>
  <g id="_2459065257824">
  </g>
  <g id="_2459065257568">
  </g>
  <g id="_2459065257600">
  </g>
  <g id="_2459065258752">
  </g>
  <g id="_2459065257856">
  </g>
  <g id="_2459065256128">
  </g>
  <g id="_2459065256032">
  </g>
  <g id="_2459065256096">
  </g>
  <g id="_2459065256192">
  </g>
  <g id="_2459065257056">
  </g>
  <g id="_2459065257184">
  </g>
  <g id="_2459065253664">
  </g>
  <g id="_2459065254688">
  </g>
  <g id="_2459065254432">
  </g>
  <g id="_2459065254080">
  </g>
  <g id="_2459065253344">
  </g>
  <g id="_2459065253952">
  </g>
  <g id="_2459065252576">
  </g>
  <g id="_2459065252512">
  </g>
  <g id="_2459065251424">
  </g>
  <g id="_2459065252192">
  </g>
  <g id="_2459065252640">
  </g>
  <g id="_2459065253120">
  </g>
  <g id="_2459065251808">
  </g>
  <g id="_2459065251008">
  </g>
  <g id="_2459065250720">
  </g>
  <g id="_2459065249120">
  </g>
  <g id="_2459065250432">
  </g>
  <g id="_2459065249728">
  </g>
  <g id="_2459065248672">
  </g>
  <g id="_2459065247424">
  </g>
  <g id="_2459065248768">
  </g>
  <g id="_2459065248384">
  </g>
  <g id="_2459065248224">
  </g>
  <g id="_2459065247776">
  </g>
  <g id="_2459065247232">
  </g>
  <g id="_2459065246240">
  </g>
  <g id="_2459065245248">
  </g>
  <g id="_2459065245280">
  </g>
  <g id="_2459065246688">
  </g>
  <g id="_2459065246336">
  </g>
  <g id="_2459065243424">
   <path class="fil6" d="M33 9c-3,-3 -7,-4 -11,-5l0 -2c0,-1 -1,-2 -2,-2 -1,0 -2,1 -2,2l0 2c-3,1 -6,2 -8,3 0,0 0,1 0,1 0,0 1,1 1,0 2,-1 5,-2 7,-2 1,0 1,0 1,0 0,0 1,0 1,0 9,0 16,7 16,16 0,9 -7,16 -16,16 -9,0 -16,-7 -16,-16 0,-3 1,-6 2,-9 1,0 0,-1 0,-1 0,0 -1,0 -1,0 -2,3 -3,7 -3,10 0,5 2,9 5,13 4,3 8,5 13,5 5,0 9,-2 13,-5 3,-4 5,-8 5,-13 0,-5 -2,-9 -5,-13l0 0zm-14 -5l0 -2c0,0 1,0 1,0 0,0 1,0 1,0l0 2c0,0 -1,0 -1,0 0,0 -1,0 -1,0z" data-original="#000000"/>
   <path class="fil6" d="M20 37c8,0 15,-7 15,-15 0,-8 -7,-15 -15,-15 -8,0 -15,7 -15,15 0,8 7,15 15,15zm0 -28c7,0 13,6 13,13 0,7 -6,13 -13,13 -7,0 -13,-6 -13,-13 0,-7 6,-13 13,-13z" data-original="#000000"/>
   <path class="fil6" d="M11 23l6 0 1 1c0,0 0,0 0,0l1 1 0 6c0,1 1,1 1,1 0,0 1,0 1,-1l0 -5 5 3c0,1 1,1 1,1 0,0 0,0 0,-1 1,0 1,0 0,-1l-3 -5 5 0c1,0 1,-1 1,-1 0,0 0,-1 -1,-1l-6 0 -1 -1c0,0 0,0 0,0l-1 -1 0 -6c0,-1 -1,-1 -1,-1 0,0 -1,0 -1,1l0 5 -5 -3c-1,-1 -1,-1 -1,0 -1,0 -1,0 0,1l3 5 -5 0c-1,0 -1,1 -1,1 0,0 0,1 1,1l0 0zm10 -2l3 5 -5 -3 -3 -5 5 3z" data-original="#000000"/>
   <path class="fil6" d="M8 11c0,0 0,0 0,-1l0 0c1,0 1,0 0,-1 0,0 0,0 -1,0 0,1 0,1 0,1 0,1 1,1 1,1l0 0z" data-original="#000000"/>
  </g>
  <g id="_2459065243456">
  </g>
  <g id="_2459065241440">
  </g>
  <g id="_2459065241216">
  </g>
  <g id="_2459065241696">
  </g>
  <g id="_2459065242752">
  </g>
  <g id="_2459065241984">
  </g>
  <g id="_2459065241952">
  </g>
  <g id="_2459065241856">
  </g>
  <g id="_2459065239200">
  </g>
  <g id="_2459065240192">
  </g>
  <g id="_2459065240384">
  </g>
  <g id="_2459065240256">
  </g>
  <g id="_2459065239328">
  </g>
  <g id="_2459065240480">
  </g>
  <g id="_2459065237792">
  </g>
 </g>
</svg>
