<?xml version="1.0" encoding="UTF-8"?>
<!DOCTYPE svg PUBLIC "-//W3C//DTD SVG 1.1//EN" "http://www.w3.org/Graphics/SVG/1.1/DTD/svg11.dtd">
<!-- Creator: CorelDRAW X8 -->
<svg xmlns="http://www.w3.org/2000/svg" xml:space="preserve" width="40px" height="40px" version="1.1" style="shape-rendering:geometricPrecision; text-rendering:geometricPrecision; image-rendering:optimizeQuality; fill-rule:evenodd; clip-rule:evenodd"
viewBox="0 0 40 40"
 xmlns:xlink="http://www.w3.org/1999/xlink"
 xmlns:svgjs="http://svgjs.com/svgjs">
 <defs>
  <style type="text/css">
   <![CDATA[
    .str0 {stroke:#464646;stroke-width:7.65488}
    .fil3 {fill:#2196F3}
    .fil4 {fill:#90CAF9}
    .fil2 {fill:#BBDEFB}
    .fil0 {fill:white}
    .fil6 {fill:white}
    .fil5 {fill:#A2A2A2;fill-opacity:0.250980}
    .fil1 {fill:#934803;fill-opacity:0.800000}
   ]]>
  </style>
 </defs>
 <g id="Camada_x0020_1">
  <metadata id="CorelCorpID_0Corel-Layer"/>
  <g id="_2459057208368">
   <polygon class="fil0 str0" points="-3809,4009 -3882,3244 -3116,3244 -3190,4009 -3809,4009 " vectorEffect="non-scaling-stroke" strokeWidth="5.616" strokeLinejoin="miter" strokeLinecap="butt" strokeMiterlimit="4"/>
   <g>
    <polygon class="fil1" points="-3811,3650 -3187,3650 -3225,3972 -3772,3972 "/>
   </g>
   <g id="iceLeft">
    <polygon class="fil2" points="-3547,3846 -3693,3869 -3777,3723 -3631,3700 "/>
    <polygon class="fil3" points="-3547,3846 -3454,3731 -3539,3585 -3631,3700 "/>
    <polygon class="fil4" points="-3777,3723 -3685,3608 -3539,3585 -3631,3700 "/>
   </g>
   <g id="iceRight">
    <polygon class="fil2" points="-3436,3930 -3555,3843 -3512,3680 -3393,3768 "/>
    <polygon class="fil3" points="-3436,3930 -3289,3914 -3246,3751 -3393,3768 "/>
    <polygon class="fil4" points="-3512,3680 -3365,3664 -3246,3751 -3393,3768 "/>
   </g>
   <g>
    <path class="fil5" d="M-3218 3334c-13,-1 -25,7 -26,17l-2 32c-1,10 9,19 23,20l2 0c13,0 24,-8 25,-19l2 -31c2,-10 -9,-19 -24,-19l0 0zm-8 109c-14,0 -26,7 -26,18l-35 458 -437 0c-15,0 -26,8 -26,20 0,11 11,19 26,19l461 0c14,0 25,-8 25,-18l37 -477c0,-10 -11,-19 -25,-20l0 0z" fillRule="evenodd"/>
   </g>
  </g>
  <g id="_2459057208752">
  </g>
  <g id="_2459057206256">
  </g>
  <g id="_2459057206928">
  </g>
  <g id="_2459057205616">
  </g>
  <g id="_2459057219792">
  </g>
  <g id="_2459057220432">
  </g>
  <g id="_2459057220720">
  </g>
  <g id="_2459057220336">
  </g>
  <g id="_2459057219280">
  </g>
  <g id="_2459057218896">
  </g>
  <g id="_2459057218768">
  </g>
  <g id="_2459057217872">
  </g>
  <g id="_2459057218000">
  </g>
  <g id="_2459057217648">
  </g>
  <g id="_2459057216624">
  </g>
  <g id="_2459057216272">
  </g>
  <g id="_2459057215088">
  </g>
  <g id="_2459057212592">
  </g>
  <g id="_2459057213136">
  </g>
  <g id="_2459057209840">
  </g>
  <g id="_2459057210160">
  </g>
  <g id="_2459057211024">
  </g>
  <g id="_2459057210512">
  </g>
  <g id="_2459057210320">
  </g>
  <g id="_2459057209648">
  </g>
  <g id="_2459057211280">
  </g>
  <g id="_2459005104960">
  </g>
  <g id="_2459005105824">
  </g>
  <g id="_2459005104512">
  </g>
  <g id="_2459005136288">
  </g>
  <g id="_2459005134720">
  </g>
  <g id="_2459005135520">
  </g>
  <g id="_2459005133952">
  </g>
  <g id="_2459005129824">
  </g>
  <g id="_2459005129632">
  </g>
  <g id="_2459005130176">
  </g>
  <g id="_2459005128896">
  </g>
  <g id="_2459005126848">
  </g>
  <g id="_2459005128224">
  </g>
  <g id="_2459005127744">
  </g>
  <g id="_2459005127776">
  </g>
  <g id="_2459005127552">
  </g>
  <g id="_2459005126656">
  </g>
  <g id="_2459005127424">
  </g>
  <g id="_2459005124992">
  </g>
  <g id="_2459005124896">
  </g>
  <g id="_2459005124864">
  </g>
  <g id="_2459005124768">
  </g>
  <g id="_2459005125536">
  </g>
  <g id="_2459005123456">
  </g>
  <g id="_2459005123424">
  </g>
  <g id="_2459005124192">
  </g>
  <g id="_2459005123712">
  </g>
  <g id="_2459005121408">
  </g>
  <g id="_2459005122080">
  </g>
  <g id="_2459005120384">
  </g>
  <g id="_2459005120576">
  </g>
  <g id="_2459005120512">
  </g>
  <g id="_2459005122176">
  </g>
  <g id="_2459005119584">
  </g>
  <g id="_2459005118816">
   <path class="fil6" d="M30 16l2 0c0,0 0,0 0,0 2,0 3,-1 4,-3l2 -2c2,-3 2,-6 2,-8 0,-1 -1,-2 -1,-2 0,0 -1,0 -1,-1 -3,0 -6,1 -8,3l-3 2c-1,2 -2,3 -2,5 0,0 0,0 0,0l0 2c1,1 0,2 0,3l-20 20c0,0 -1,1 -1,2 0,1 1,2 1,2 1,1 2,1 3,1 0,0 0,0 0,0 1,0 1,0 2,-1l17 -22c1,-1 2,-1 3,-1l0 0zm-4 0l-17 22c0,1 -1,1 -1,1 -1,0 -1,0 -2,-1 0,0 0,-1 0,-1 0,-1 0,-1 0,-1l19 -20c1,-1 2,-3 2,-4l0 -2c-1,-2 0,-3 1,-4l3 -2c1,-2 4,-2 6,-2 1,0 1,0 1,0 0,0 1,0 1,1 0,2 0,5 -2,7l-2 3c-1,1 -2,2 -3,2l-2 0c-2,0 -3,0 -4,1l0 0zm0 0z" data-original="#000000"/>
   <path class="fil6" d="M39 35l-13 -12c0,-1 -1,-1 -1,0 0,0 0,0 0,1l13 11c0,1 1,1 1,2 0,0 -1,1 -1,1 0,1 -1,1 -2,1 0,0 0,0 -1,-1l-11 -12c-1,-1 -1,-1 -1,-1 0,1 0,1 0,1l11 13c1,1 2,1 2,1 0,0 0,0 0,0 1,0 2,0 3,-1 0,-1 1,-1 1,-2 0,-1 -1,-2 -1,-2l0 0zm0 0z" data-original="#000000"/>
   <path class="fil6" d="M7 16c1,1 3,1 4,1 0,0 0,0 0,0l2 0c1,0 2,1 3,1l1 2c0,0 0,0 0,0 0,0 0,0 1,0 0,-1 0,-1 0,-1l-1 -1c-1,-1 -3,-2 -4,-2l-2 0c-1,0 -2,0 -3,-1l-7 -8c0,0 0,0 0,0 0,0 0,0 0,0 0,0 1,0 1,0l6 6c0,0 1,0 2,0l1 -1 0 0 1 -1c0,0 0,0 0,0 0,0 0,0 0,0l1 -1c0,-1 0,-2 0,-2l-6 -6c-1,-1 -1,-1 0,-1 0,0 0,0 0,0l8 7c1,1 1,2 1,3l0 2c0,2 1,3 2,4l1 1c0,0 0,0 0,0 1,-1 1,-1 0,-1l-1 -1c0,-1 -1,-2 -1,-3l0 -2c0,0 0,0 0,0 0,-1 0,-3 -1,-4 0,0 0,0 0,0l-8 -7c-1,0 -2,0 -2,0 -1,1 -1,2 0,2l6 7c0,0 0,0 0,0l0 1 -7 -7c-1,-1 -1,-1 -1,0 0,0 0,0 0,0l7 7 -1 1 -7 -7c0,0 0,0 0,0 -1,0 -1,0 0,1l6 7 0 0c0,0 0,0 0,0l-7 -6c0,-1 0,-1 -1,-1 0,0 0,0 -1,1 0,0 0,1 0,2l7 8c0,0 0,0 0,0l0 0zm0 0z" data-original="#000000"/>
  </g>
  <g id="_2459005117696">
  </g>
  <g id="_2459005116896">
  </g>
  <g id="_2459005116192">
  </g>
  <g id="_2459005116352">
  </g>
  <g id="_2459005118016">
  </g>
  <g id="_2459005114080">
  </g>
  <g id="_2459005115040">
  </g>
  <g id="_2459005114688">
  </g>
  <g id="_2459005115136">
  </g>
  <g id="_2459005113376">
  </g>
  <g id="_2459005112864">
  </g>
  <g id="_2459005113728">
  </g>
  <g id="_2459005112320">
  </g>
  <g id="_2459005113856">
  </g>
  <g id="_2459005112672">
  </g>
 </g>
</svg>
