<?xml version="1.0" encoding="UTF-8"?>
<!DOCTYPE svg PUBLIC "-//W3C//DTD SVG 1.1//EN" "http://www.w3.org/Graphics/SVG/1.1/DTD/svg11.dtd">
<!-- Creator: CorelDRAW X8 -->
<svg xmlns="http://www.w3.org/2000/svg" xml:space="preserve" width="40px" height="40px" version="1.1" style="shape-rendering:geometricPrecision; text-rendering:geometricPrecision; image-rendering:optimizeQuality; fill-rule:evenodd; clip-rule:evenodd"
viewBox="0 0 40 40"
 xmlns:xlink="http://www.w3.org/1999/xlink"
 xmlns:svgjs="http://svgjs.com/svgjs">
 <defs>
  <style type="text/css">
   <![CDATA[
    .str0 {stroke:#464646;stroke-width:7.65488}
    .fil3 {fill:#2196F3}
    .fil4 {fill:#90CAF9}
    .fil2 {fill:#BBDEFB}
    .fil0 {fill:white}
    .fil6 {fill:white}
    .fil5 {fill:#A2A2A2;fill-opacity:0.250980}
    .fil1 {fill:#934803;fill-opacity:0.800000}
   ]]>
  </style>
 </defs>
 <g id="Camada_x0020_1">
  <metadata id="CorelCorpID_0Corel-Layer"/>
  <g id="_2458932593456">
   <polygon class="fil0 str0" points="-3809,4009 -3882,3244 -3116,3244 -3190,4009 -3809,4009 " vectorEffect="non-scaling-stroke" strokeWidth="5.616" strokeLinejoin="miter" strokeLinecap="butt" strokeMiterlimit="4"/>
   <g>
    <polygon class="fil1" points="-3811,3650 -3187,3650 -3225,3972 -3772,3972 "/>
   </g>
   <g id="iceLeft">
    <polygon class="fil2" points="-3547,3846 -3693,3869 -3777,3723 -3631,3700 "/>
    <polygon class="fil3" points="-3547,3846 -3454,3731 -3539,3585 -3631,3700 "/>
    <polygon class="fil4" points="-3777,3723 -3685,3608 -3539,3585 -3631,3700 "/>
   </g>
   <g id="iceRight">
    <polygon class="fil2" points="-3436,3930 -3555,3843 -3512,3680 -3393,3768 "/>
    <polygon class="fil3" points="-3436,3930 -3289,3914 -3246,3751 -3393,3768 "/>
    <polygon class="fil4" points="-3512,3680 -3365,3664 -3246,3751 -3393,3768 "/>
   </g>
   <g>
    <path class="fil5" d="M-3218 3334c-13,-1 -25,7 -26,17l-2 32c-1,10 9,19 23,20l2 0c13,0 24,-8 25,-19l2 -31c2,-10 -9,-19 -24,-19l0 0zm-8 109c-14,0 -26,7 -26,18l-35 458 -437 0c-15,0 -26,8 -26,20 0,11 11,19 26,19l461 0c14,0 25,-8 25,-18l37 -477c0,-10 -11,-19 -25,-20l0 0z" fillRule="evenodd"/>
   </g>
  </g>
  <g id="_2459057215952">
  </g>
  <g id="_2459057216976">
  </g>
  <g id="_2459057217072">
  </g>
  <g id="_2459057217296">
  </g>
  <g id="_2459057214096">
  </g>
  <g id="_2459057213232">
  </g>
  <g id="_2459057212624">
  </g>
  <g id="_2459057210608">
  </g>
  <g id="_2459057210576">
  </g>
  <g id="_2459057210544">
  </g>
  <g id="_2459057211056">
  </g>
  <g id="_2459057210960">
  </g>
  <g id="_2459057209968">
  </g>
  <g id="_2459057210320">
  </g>
  <g id="_2459057209264">
  </g>
  <g id="_2459057208368">
  </g>
  <g id="_2459057206192">
  </g>
  <g id="_2459057207184">
  </g>
  <g id="_2459057206160">
  </g>
  <g id="_2459057220592">
  </g>
  <g id="_2459057221552">
  </g>
  <g id="_2459057220464">
  </g>
  <g id="_2459057218896">
  </g>
  <g id="_2459057219472">
  </g>
  <g id="_2459057218704">
  </g>
  <g id="_2459057217840">
  </g>
  <g id="_2459057218736">
  </g>
  <g id="_2459005112064">
  </g>
  <g id="_2459005110496">
  </g>
  <g id="_2459005109600">
  </g>
  <g id="_2459005108832">
  </g>
  <g id="_2459005109472">
  </g>
  <g id="_2459005108416">
  </g>
  <g id="_2459005107584">
  </g>
  <g id="_2459005107392">
  </g>
  <g id="_2459005107680">
  </g>
  <g id="_2459005104480">
  </g>
  <g id="_2459005104992">
  </g>
  <g id="_2459005104640">
  </g>
  <g id="_2459005134752">
  </g>
  <g id="_2459005136160">
  </g>
  <g id="_2459005136000">
  </g>
  <g id="_2459005135776">
  </g>
  <g id="_2459005128480">
  </g>
  <g id="_2459005129856">
  </g>
  <g id="_2459005129152">
  </g>
  <g id="_2459005130144">
  </g>
  <g id="_2459005126592">
  </g>
  <g id="_2459005128352">
  </g>
  <g id="_2459005127040">
  </g>
  <g id="_2459005128128">
  </g>
  <g id="_2459005127168">
  </g>
  <g id="_2459005126944">
  </g>
  <g id="_2459005124608">
  </g>
  <g id="_2459005125504">
  </g>
  <g id="_2459005126304">
  </g>
  <g id="_2459005125024">
  </g>
  <g id="_2459005125856">
  </g>
  <g id="_2459005125472">
  </g>
  <g id="_2459005122368">
  </g>
  <g id="_2459005120512">
   <g>
    <path class="fil6" d="M34 26c-2,-2 -5,-4 -7,-5 3,-2 5,-5 5,-9 0,-7 -6,-12 -12,-12 -6,0 -12,5 -12,12 0,4 2,7 5,9 -2,1 -5,3 -7,5 -4,4 -6,9 -6,14l3 0c0,-9 8,-17 17,-17 9,0 17,8 17,17l3 0c0,-5 -2,-10 -6,-14zm-14 -6c-5,0 -8,-4 -8,-8 0,-5 3,-9 8,-9 5,0 8,4 8,9 0,4 -3,8 -8,8z" data-original="#000000"/>
   </g>
  </g>
  <g id="_2459005121248">
  </g>
  <g id="_2459005120640">
  </g>
  <g id="_2459005122048">
  </g>
  <g id="_2459005121824">
  </g>
  <g id="_2459005122080">
  </g>
  <g id="_2459005118624">
  </g>
  <g id="_2459005118304">
  </g>
  <g id="_2459005119392">
  </g>
  <g id="_2459005119168">
  </g>
  <g id="_2459005119680">
  </g>
  <g id="_2459005119136">
  </g>
  <g id="_2459005116352">
  </g>
  <g id="_2459005116288">
  </g>
  <g id="_2459005116960">
  </g>
  <g id="_2459005116160">
  </g>
 </g>
</svg>
