<?xml version="1.0" encoding="UTF-8"?>
<!DOCTYPE svg PUBLIC "-//W3C//DTD SVG 1.1//EN" "http://www.w3.org/Graphics/SVG/1.1/DTD/svg11.dtd">
<!-- Creator: CorelDRAW X8 -->
<svg xmlns="http://www.w3.org/2000/svg" xml:space="preserve" width="40px" height="40px" version="1.1" style="shape-rendering:geometricPrecision; text-rendering:geometricPrecision; image-rendering:optimizeQuality; fill-rule:evenodd; clip-rule:evenodd"
viewBox="0 0 40 40"
 xmlns:xlink="http://www.w3.org/1999/xlink"
 xmlns:svgjs="http://svgjs.com/svgjs">
 <defs>
  <style type="text/css">
   <![CDATA[
    .fil0 {fill:white}
   ]]>
  </style>
 </defs>
 <g id="Camada_x0020_1">
  <metadata id="CorelCorpID_0Corel-Layer"/>
  <g id="_2459052917888">
   <g>
    <g>
     <path class="fil0" d="M11 9c-1,0 -1,0 -2,0 -2,2 -3,5 -3,8 0,1 1,2 2,2 0,0 0,0 0,0 0,0 1,-1 1,-2 0,-2 1,-4 2,-6 1,0 1,-1 0,-2z" data-original="#000000"/>
    </g>
   </g>
   <g>
    <g>
     <path class="fil0" d="M17 0c-9,0 -17,8 -17,17 0,9 8,17 17,17 9,0 17,-8 17,-17 0,-9 -8,-17 -17,-17zm0 31c-8,0 -14,-6 -14,-14 0,-8 6,-14 14,-14 8,0 14,6 14,14 0,8 -6,14 -14,14z" data-original="#000000"/>
    </g>
   </g>
   <g>
    <g>
     <path class="fil0" d="M40 37l-11 -10c-1,-1 -2,-1 -2,0 -1,0 -1,1 0,2l10 11c1,0 1,0 2,0 0,0 0,0 1,0 0,-1 0,-2 0,-3z" data-original="#000000"/>
    </g>
   </g>
  </g>
  <g id="_2459052918176">
  </g>
  <g id="_2459052916128">
  </g>
  <g id="_2459052914944">
  </g>
  <g id="_2459052915488">
  </g>
  <g id="_2459052915168">
  </g>
  <g id="_2459052916192">
  </g>
  <g id="_2459052915200">
  </g>
  <g id="_2459052913312">
  </g>
  <g id="_2459052913856">
  </g>
  <g id="_2459052913600">
  </g>
  <g id="_2459052913120">
  </g>
  <g id="_2459052911936">
  </g>
  <g id="_2459052911424">
  </g>
  <g id="_2459052911648">
  </g>
  <g id="_2459052909536">
  </g>
  <g id="_2459052909088">
  </g>
  <g id="_2459052909408">
  </g>
  <g id="_2459052909376">
  </g>
  <g id="_2459052910208">
  </g>
  <g id="_2459052908672">
  </g>
  <g id="_2459052907680">
  </g>
  <g id="_2459052907232">
  </g>
  <g id="_2459052906880">
  </g>
  <g id="_2459052906624">
  </g>
  <g id="_2459052908128">
  </g>
  <g id="_2459052908448">
  </g>
  <g id="_2459052907712">
  </g>
  <g id="_2459052905792">
  </g>
  <g id="_2459052905408">
  </g>
  <g id="_2459052906080">
  </g>
  <g id="_2459052904416">
  </g>
  <g id="_2459052905952">
  </g>
  <g id="_2459052906272">
  </g>
  <g id="_2459052903648">
  </g>
  <g id="_2459052902432">
  </g>
  <g id="_2459052903392">
  </g>
  <g id="_2459052902624">
  </g>
  <g id="_2459052902816">
  </g>
  <g id="_2459052902944">
  </g>
  <g id="_2459052902464">
  </g>
  <g id="_2459052901088">
  </g>
  <g id="_2459052902304">
  </g>
  <g id="_2459052900896">
  </g>
  <g id="_2459052901728">
  </g>
  <g id="_2459052902208">
  </g>
  <g id="_2459052901280">
  </g>
  <g id="_2459052900768">
  </g>
  <g id="_2459052899424">
  </g>
  <g id="_2459052899520">
  </g>
  <g id="_2459052899872">
  </g>
  <g id="_2459052900288">
  </g>
  <g id="_2459052900160">
  </g>
  <g id="_2459052899072">
  </g>
  <g id="_2459052896224">
  </g>
  <g id="_2459052896896">
  </g>
  <g id="_2459052897248">
  </g>
  <g id="_2459052897760">
  </g>
  <g id="_2459052896384">
  </g>
  <g id="_2459052896768">
  </g>
  <g id="_2459052897696">
  </g>
  <g id="_2459052895552">
  </g>
  <g id="_2459052894400">
  </g>
  <g id="_2459052894432">
  </g>
  <g id="_2459052895584">
  </g>
  <g id="_2459052892992">
  </g>
  <g id="_2459052892736">
  </g>
  <g id="_2459052891872">
  </g>
  <g id="_2459052891072">
  </g>
  <g id="_2459052948576">
  </g>
  <g id="_2459052948032">
  </g>
  <g id="_2459052947712">
  </g>
  <g id="_2459052947904">
  </g>
  <g id="_2459052948832">
  </g>
  <g id="_2459052948096">
  </g>
  <g id="_2459052945696">
  </g>
 </g>
</svg>
