<?xml version="1.0" encoding="UTF-8"?>
<!DOCTYPE svg PUBLIC "-//W3C//DTD SVG 1.1//EN" "http://www.w3.org/Graphics/SVG/1.1/DTD/svg11.dtd">
<!-- Creator: CorelDRAW X8 -->
<svg xmlns="http://www.w3.org/2000/svg" xml:space="preserve" width="53px" height="40px" version="1.1" style="shape-rendering:geometricPrecision; text-rendering:geometricPrecision; image-rendering:optimizeQuality; fill-rule:evenodd; clip-rule:evenodd"
viewBox="0 0 53 40"
 xmlns:xlink="http://www.w3.org/1999/xlink"
 xmlns:svgjs="http://svgjs.com/svgjs">
 <defs>
  <style type="text/css">
   <![CDATA[
    .str0 {stroke:#464646;stroke-width:7.65495}
    .fil3 {fill:#2196F3}
    .fil4 {fill:#90CAF9}
    .fil2 {fill:#BBDEFB}
    .fil6 {fill:#ff6a28}
    .fil0 {fill:white}
    .fil5 {fill:#A2A2A2;fill-opacity:0.250980}
    .fil1 {fill:#934803;fill-opacity:0.800000}
   ]]>
  </style>
 </defs>
 <g id="Camada_x0020_1">
  <metadata id="CorelCorpID_0Corel-Layer"/>
  <g id="_2459004854016">
   <polygon class="fil0 str0" points="-3802,4009 -3875,3244 -3110,3244 -3184,4009 -3802,4009 " vectorEffect="non-scaling-stroke" strokeWidth="5.616" strokeLinejoin="miter" strokeLinecap="butt" strokeMiterlimit="4"/>
   <g>
    <polygon class="fil1" points="-3805,3650 -3181,3650 -3218,3972 -3766,3972 "/>
   </g>
   <g id="iceLeft">
    <polygon class="fil2" points="-3540,3846 -3687,3869 -3771,3723 -3625,3700 "/>
    <polygon class="fil3" points="-3540,3846 -3448,3731 -3532,3585 -3625,3700 "/>
    <polygon class="fil4" points="-3771,3723 -3678,3608 -3532,3585 -3625,3700 "/>
   </g>
   <g id="iceRight">
    <polygon class="fil2" points="-3430,3930 -3549,3843 -3505,3680 -3386,3768 "/>
    <polygon class="fil3" points="-3430,3930 -3283,3914 -3239,3751 -3386,3768 "/>
    <polygon class="fil4" points="-3505,3680 -3358,3664 -3239,3751 -3386,3768 "/>
   </g>
   <g>
    <path class="fil5" d="M-3211 3334c-13,-1 -26,7 -27,17l-2 32c-1,10 10,19 24,20l1 0c14,0 25,-8 25,-19l3 -31c1,-10 -9,-19 -24,-19l0 0zm-8 109c-14,0 -26,7 -27,18l-35 458 -437 0c-14,0 -26,8 -26,20 0,11 11,19 26,19l462 0c13,0 24,-8 25,-18l36 -477c1,-10 -10,-19 -24,-20l0 0z" fillRule="evenodd"/>
   </g>
  </g>
  <g id="_2459004855456">
  </g>
  <g id="_2459004717280">
  </g>
  <g id="_2459004718176">
  </g>
  <g id="_2459004717984">
  </g>
  <g id="_2459004717856">
  </g>
  <g id="_2459004718240">
  </g>
  <g id="_2459004718560">
  </g>
  <g id="_2459004715744">
  </g>
  <g id="_2459004716384">
  </g>
  <g id="_2459004716992">
  </g>
  <g id="_2459004713984">
  </g>
  <g id="_2459004711456">
  </g>
  <g id="_2459004711520">
  </g>
  <g id="_2459004711904">
  </g>
  <g id="_2459004712960">
  </g>
  <g id="_2459006286784">
   <g>
    <g>
     <path class="fil6" d="M53 14l-16 -14c0,0 -1,0 -1,0 0,0 -1,1 -1,1l0 8c-12,0 -18,6 -21,12 -2,4 -3,9 -3,10 0,1 0,1 0,1l0 0c0,0 0,0 0,0l0 0c0,0 0,0 0,0l0 0 0 0c0,0 0,0 0,0l0 0c0,0 0,0 0,0 0,0 0,0 0,0l0 0c0,0 0,0 0,0 0,0 0,0 0,0l0 0 0 0 0 0c0,0 0,0 0,0l0 0c0,0 0,0 0,0 0,0 0,0 0,0 0,0 0,0 0,0l0 0 0 0 0 0 0 0c0,0 0,0 0,0 0,0 0,0 0,0 0,0 0,0 0,0l0 0c0,0 0,0 0,0l0 0c0,0 0,0 0,0 0,0 0,0 0,0l0 0c0,0 0,0 0,0l0 0c0,0 0,0 0,0l0 0c0,0 0,0 0,0l0 0 0 0 0 0 0 0 0 0c0,0 0,0 0,0 0,0 0,0 0,0l0 0 0 0c0,0 0,0 0,0 0,0 0,0 0,0l0 0c0,0 0,0 0,0l0 0c0,0 0,0 0,0 0,0 0,0 0,0l0 0 0 0 0 0c0,0 0,0 0,0 0,0 0,0 0,0 0,1 0,1 1,1 1,0 1,0 1,-1l0 0c0,0 0,0 0,0 1,-9 18,-12 22,-12l0 8c0,0 1,1 1,1 0,0 1,0 1,0l16 -14c0,0 0,0 0,-1 0,0 0,0 0,0zm-15 11l0 -6c0,0 -1,-1 -1,-1 0,0 0,0 0,0 -1,0 -1,0 -1,0 0,0 -14,1 -21,6 2,-6 8,-13 21,-13l1 0c0,0 0,0 0,0 0,0 1,-1 1,-1l0 -6 12 10 -12 11z" data-original="#000000"/>
     <path class="fil6" d="M45 25c0,0 -1,0 -1,1l0 10c0,1 -1,2 -2,2l-38 0c-1,0 -2,-1 -2,-2l0 -23c0,-1 1,-2 2,-2l16 0c0,0 1,0 1,-1 0,-1 -1,-1 -1,-1l-16 0c-2,0 -4,2 -4,4l0 23c0,2 2,4 4,4l38 0c3,0 5,-2 5,-4l0 -10c0,-1 -1,-1 -2,-1z" data-original="#000000"/>
    </g>
   </g>
  </g>
  <g id="_2459006286752">
  </g>
  <g id="_2459006286976">
  </g>
  <g id="_2459006286144">
  </g>
  <g id="_2459006286112">
  </g>
  <g id="_2459006287360">
  </g>
  <g id="_2459006293728">
  </g>
  <g id="_2459006293408">
  </g>
  <g id="_2459006292352">
  </g>
  <g id="_2459006292864">
  </g>
  <g id="_2459006292416">
  </g>
  <g id="_2459006292928">
  </g>
  <g id="_2459006291776">
  </g>
  <g id="_2459006291136">
  </g>
  <g id="_2459006290624">
  </g>
  <g id="_2459006291008">
  </g>
  <g id="_2459006291488">
  </g>
  <g id="_2459006291968">
  </g>
  <g id="_2459006289952">
  </g>
  <g id="_2459006288864">
  </g>
  <g id="_2459006289344">
  </g>
  <g id="_2459006288832">
  </g>
  <g id="_2459006289024">
  </g>
  <g id="_2459006288928">
  </g>
  <g id="_2459061741568">
  </g>
  <g id="_2459061740192">
  </g>
  <g id="_2459061741696">
  </g>
  <g id="_2459061740800">
  </g>
  <g id="_2459061741600">
  </g>
  <g id="_2459061740704">
  </g>
  <g id="_2459061755392">
  </g>
  <g id="_2459061754816">
  </g>
  <g id="_2459061756000">
  </g>
  <g id="_2459061754400">
  </g>
  <g id="_2459061755424">
  </g>
  <g id="_2459061754048">
  </g>
  <g id="_2459061753600">
  </g>
  <g id="_2459061753824">
  </g>
  <g id="_2459061754080">
  </g>
  <g id="_2459061753760">
  </g>
  <g id="_2459061753120">
  </g>
  <g id="_2459061752064">
  </g>
  <g id="_2459061751488">
  </g>
  <g id="_2459061751232">
  </g>
  <g id="_2459061751872">
  </g>
  <g id="_2459061750592">
  </g>
  <g id="_2459061747552">
  </g>
  <g id="_2459061747968">
  </g>
  <g id="_2459061746464">
  </g>
  <g id="_2459061747328">
  </g>
  <g id="_2459061746912">
  </g>
  <g id="_2459061746048">
  </g>
  <g id="_2459061745248">
  </g>
  <g id="_2459061744384">
  </g>
  <g id="_2459061745888">
  </g>
  <g id="_2459061744128">
  </g>
  <g id="_2459061744768">
  </g>
  <g id="_2459061745536">
  </g>
  <g id="_2459061743712">
  </g>
  <g id="_2459061742432">
  </g>
  <g id="_2459061742016">
  </g>
 </g>
</svg>
