<?xml version="1.0" encoding="UTF-8"?>
<!DOCTYPE svg PUBLIC "-//W3C//DTD SVG 1.1//EN" "http://www.w3.org/Graphics/SVG/1.1/DTD/svg11.dtd">
<!-- Creator: CorelDRAW X8 -->
<svg xmlns="http://www.w3.org/2000/svg" xml:space="preserve" width="40px" height="40px" version="1.1" style="shape-rendering:geometricPrecision; text-rendering:geometricPrecision; image-rendering:optimizeQuality; fill-rule:evenodd; clip-rule:evenodd"
viewBox="0 0 40 40"
 xmlns:xlink="http://www.w3.org/1999/xlink"
 xmlns:svgjs="http://svgjs.com/svgjs">
 <defs>
  <style type="text/css">
   <![CDATA[
    .str0 {stroke:#464646;stroke-width:7.65488}
    .fil3 {fill:#2196F3}
    .fil4 {fill:#90CAF9}
    .fil2 {fill:#BBDEFB}
    .fil6 {fill:#FF6A28}
    .fil0 {fill:white}
    .fil5 {fill:#A2A2A2;fill-opacity:0.250980}
    .fil1 {fill:#934803;fill-opacity:0.800000}
   ]]>
  </style>
 </defs>
 <g id="Camada_x0020_1">
  <metadata id="CorelCorpID_0Corel-Layer"/>
  <g id="_2459056046464">
   <polygon class="fil0 str0" points="-3809,4009 -3882,3244 -3116,3244 -3190,4009 -3809,4009 " vectorEffect="non-scaling-stroke" strokeWidth="5.616" strokeLinejoin="miter" strokeLinecap="butt" strokeMiterlimit="4"/>
   <g>
    <polygon class="fil1" points="-3811,3650 -3187,3650 -3225,3972 -3772,3972 "/>
   </g>
   <g id="iceLeft">
    <polygon class="fil2" points="-3547,3846 -3693,3869 -3777,3723 -3631,3700 "/>
    <polygon class="fil3" points="-3547,3846 -3454,3731 -3539,3585 -3631,3700 "/>
    <polygon class="fil4" points="-3777,3723 -3685,3608 -3539,3585 -3631,3700 "/>
   </g>
   <g id="iceRight">
    <polygon class="fil2" points="-3436,3930 -3555,3843 -3512,3680 -3393,3768 "/>
    <polygon class="fil3" points="-3436,3930 -3289,3914 -3246,3751 -3393,3768 "/>
    <polygon class="fil4" points="-3512,3680 -3365,3664 -3246,3751 -3393,3768 "/>
   </g>
   <g>
    <path class="fil5" d="M-3218 3334c-13,-1 -25,7 -26,17l-2 32c-1,10 9,19 23,20l2 0c13,0 24,-8 25,-19l2 -31c2,-10 -9,-19 -24,-19l0 0zm-8 109c-14,0 -26,7 -26,18l-35 458 -437 0c-15,0 -26,8 -26,20 0,11 11,19 26,19l461 0c14,0 25,-8 25,-18l37 -477c0,-10 -11,-19 -25,-20l0 0z" fillRule="evenodd"/>
   </g>
  </g>
  <g id="_2459056046048">
  </g>
  <g id="_2459056047136">
  </g>
  <g id="_2459056046912">
  </g>
  <g id="_2459056045440">
  </g>
  <g id="_2459056045152">
  </g>
  <g id="_2459056044288">
  </g>
  <g id="_2459056044128">
  </g>
  <g id="_2459056045056">
  </g>
  <g id="_2459056044992">
  </g>
  <g id="_2459056044928">
  </g>
  <g id="_2459056043968">
  </g>
  <g id="_2459056042560">
  </g>
  <g id="_2459056041600">
  </g>
  <g id="_2459056041472">
  </g>
  <g id="_2459056042080">
  </g>
  <g id="_2459056042336">
  </g>
  <g id="_2459056041248">
  </g>
  <g id="_2459056039968">
  </g>
  <g id="_2459056039136">
  </g>
  <g id="_2459056040992">
  </g>
  <g id="_2459056040864">
  </g>
  <g id="_2459056039744">
  </g>
  <g id="_2459056039584">
  </g>
  <g id="_2459056071232">
  </g>
  <g id="_2459056070432">
  </g>
  <g id="_2459056070176">
  </g>
  <g id="_2459056069824">
  </g>
  <g id="_2459056071360">
  </g>
  <g id="_2459056069952">
  </g>
  <g id="_2459056068576">
  </g>
  <g id="_2459056068288">
   <path class="fil6" d="M34 2c-5,-3 -10,-2 -14,2 -4,-4 -9,-5 -14,-2 -4,2 -6,7 -6,12 0,1 0,3 1,4 1,9 13,22 19,22 6,0 18,-13 19,-22 1,-1 1,-3 1,-4 0,-5 -2,-10 -6,-12zm3 15c-2,9 -13,20 -17,20 -4,0 -15,-12 -17,-20 0,-1 0,-2 0,-3 0,-4 2,-8 5,-9 1,-1 2,-2 4,-2 3,0 5,2 7,4l1 2 1 -2c3,-4 8,-5 11,-2 3,1 5,5 5,9 0,1 0,2 0,3zm-1 -3c0,1 -1,1 -1,2 0,1 0,1 0,1 -1,0 -1,0 -1,0 0,0 0,-1 0,-1 0,-1 0,-2 0,-2 0,-3 -1,-5 -3,-6 -1,-1 -2,-1 -3,-1 0,0 -1,-1 -1,-1 0,-1 1,-1 1,-1 1,0 3,0 4,1 2,2 4,5 4,8z" data-original="#000000"/>
  </g>
  <g id="_2459056068160">
  </g>
  <g id="_2459056068640">
  </g>
  <g id="_2459056059072">
  </g>
  <g id="_2459056059168">
  </g>
  <g id="_2459056057728">
  </g>
  <g id="_2459056048832">
  </g>
  <g id="_2459005352768">
  </g>
  <g id="_2459005341664">
  </g>
  <g id="_2459005340704">
  </g>
  <g id="_2459005341088">
  </g>
  <g id="_2459005341888">
  </g>
  <g id="_2459005334656">
  </g>
  <g id="_2459005333024">
  </g>
  <g id="_2459005333248">
  </g>
  <g id="_2459005332512">
  </g>
  <g id="_2459005332992">
  </g>
  <g id="_2459005332800">
  </g>
  <g id="_2459005328256">
  </g>
  <g id="_2459005329120">
  </g>
  <g id="_2459005329856">
  </g>
  <g id="_2459005329472">
  </g>
  <g id="_2459005326944">
  </g>
  <g id="_2459005326592">
  </g>
  <g id="_2459005325824">
  </g>
  <g id="_2459005324768">
  </g>
  <g id="_2459005325600">
  </g>
  <g id="_2459005325472">
  </g>
  <g id="_2459005325088">
  </g>
  <g id="_2459005324128">
  </g>
  <g id="_2459005325536">
  </g>
  <g id="_2459005374976">
  </g>
  <g id="_2459005376160">
  </g>
  <g id="_2459005376736">
  </g>
  <g id="_2459005374400">
  </g>
  <g id="_2459005374816">
  </g>
  <g id="_2459005373888">
  </g>
  <g id="_2459005373248">
  </g>
  <g id="_2459005373792">
  </g>
  <g id="_2459005374016">
  </g>
  <g id="_2459005371872">
  </g>
  <g id="_2459005371232">
  </g>
  <g id="_2459005372544">
  </g>
  <g id="_2459005372512">
  </g>
  <g id="_2459005371936">
  </g>
  <g id="_2459005372128">
  </g>
 </g>
</svg>
